<?xml version="1.0" encoding="UTF-8"?>
<svg version="1.1" xmlns="http://www.w3.org/2000/svg" width="1772" height="1772">
<path d="M0 0 C0.75708252 0.06552063 1.51416504 0.13104126 2.29418945 0.19854736 C19.61409383 1.7039544 36.85438845 3.59627143 54 6.5 C55.11955078 6.68925049 56.23910156 6.87850098 57.39257812 7.07348633 C65.44001247 8.5243342 73.17987284 10.63754779 81 13 C81 17 81 17 78.86943054 19.14877319 C70.43369374 24.59112904 58.33494866 24.79984851 48.57421875 26.0859375 C47.2152938 26.2706879 45.85647538 26.45622335 44.49775696 26.64248657 C38.81338167 27.42018226 33.12700552 28.18279633 27.44018555 28.94238281 C-5.39817139 33.16213999 -5.39817139 33.16213999 -37.3125 41.6875 C-38.78275635 42.19059692 -38.78275635 42.19059692 -40.28271484 42.70385742 C-69.10217481 52.94376449 -89.7390278 70.31914973 -103.5625 97.8125 C-119.89565086 132.74949669 -120.88446445 172.11031496 -114.02734375 209.40234375 C-113.87628174 210.23523926 -113.72521973 211.06813477 -113.56958008 211.92626953 C-113.28128684 213.47364906 -112.97611899 215.0180165 -112.65112305 216.55810547 C-111.70235959 221.51570373 -111.70235959 221.51570373 -113.15234375 223.875 C-122.61692795 229.63779123 -133.50356582 228.61284036 -143.96264648 226.91894531 C-179.13928459 221.25051532 -212.08279818 226.19226877 -241.4375 247 C-246.51313464 250.68973949 -251.24023703 254.6936022 -255.81640625 258.9921875 C-258 261 -258 261 -260.5703125 263.0234375 C-262.7679917 264.81126013 -264.51333242 266.57426247 -266.3125 268.75 C-266.82425781 269.36359375 -267.33601562 269.9771875 -267.86328125 270.609375 C-268.23839844 271.06828125 -268.61351562 271.5271875 -269 272 C-268.38511719 272.37511719 -267.77023437 272.75023437 -267.13671875 273.13671875 C-266.32847656 273.64847656 -265.52023437 274.16023438 -264.6875 274.6875 C-263.88699219 275.18636719 -263.08648438 275.68523437 -262.26171875 276.19921875 C-258.78248949 278.96938229 -257.23960219 281.51246975 -256.53125 285.91015625 C-256.40118241 299.03072397 -261.74482129 308.37858563 -269 319 C-265.81398058 319.48934238 -262.62596849 319.96440081 -259.4375 320.4375 C-258.12362305 320.63956055 -258.12362305 320.63956055 -256.78320312 320.84570312 C-240.90086518 323.17966677 -225.07375032 323.12821643 -209.0625 323.0625 C-206.91471459 323.05747234 -204.76692804 323.05291168 -202.61914062 323.04882812 C-197.41273156 323.03792892 -192.2063788 323.02073492 -187 323 C-186.71044434 322.3797998 -186.42088867 321.75959961 -186.12255859 321.12060547 C-181.31749338 312.04344225 -168.37846381 306.9721034 -159.25 303.625 C-152.71623575 302.22889653 -145.64056716 302.85493907 -139 303 C-137.875 307.7890625 -137.875 307.7890625 -139 309.6875 C-142.65806854 312.08810748 -146.56547066 312.82068383 -150.84375 313.35546875 C-158.19632875 314.29310821 -162.49486131 316.06498153 -168 321 C-159.39377206 321.27167349 -150.96714479 320.25235502 -142.4375 319.25 C-141.66166565 319.15974548 -140.8858313 319.06949097 -140.08648682 318.97650146 C-56.11399079 309.15564907 15.72924441 274.8863681 83.9375 225.9375 C84.65252686 225.42574219 85.36755371 224.91398438 86.10424805 224.38671875 C89.45576343 221.95767911 92.63644612 219.46775066 95.71875 216.703125 C99.05104435 213.80492264 101.44498294 212.92090531 105.8515625 212.6953125 C109.75532587 213.24893712 111.37186818 215.11546508 114 218 C115.66019299 220.80337087 116.36129543 223.05872196 116.5 226.3125 C116.5515625 227.03050781 116.603125 227.74851562 116.65625 228.48828125 C114.69807914 235.98294711 106.91096161 240.5791861 100.875 244.6875 C99.55991455 245.59314697 99.55991455 245.59314697 98.21826172 246.51708984 C57.154397 274.48217579 11.55146215 294.93767595 -36 309 C-37.0297998 309.30599121 -38.05959961 309.61198242 -39.12060547 309.92724609 C-84.36042717 323.17538135 -131.06174793 329.7943337 -178 333 C-178.14493896 333.75958008 -178.28987793 334.51916016 -178.43920898 335.30175781 C-179 338 -179 338 -179.97265625 341.171875 C-185.18771937 358.29373099 -184.43415788 374.93638898 -175.91796875 390.98046875 C-169.87535491 400.49358586 -161.96917582 407.70209514 -152 413 C-151.13890625 413.45890625 -150.2778125 413.9178125 -149.390625 414.390625 C-128.00803925 424.89213161 -103.57851584 425.93745166 -80.48193359 422.06762695 C-74.60212848 421.10367758 -68.95566316 420.8287281 -63 421 C-62.3125 423.3125 -62.3125 423.3125 -62 426 C-64.36995747 429.39413869 -67.51277436 429.92839408 -71.38671875 430.91015625 C-72.04089279 431.07636978 -72.69506683 431.24258331 -73.36906433 431.41383362 C-82.45897077 433.67720101 -91.63518786 435.56781752 -100.8125 437.4375 C-101.76965912 437.63320587 -102.72681824 437.82891174 -103.71298218 438.0305481 C-121.72596054 441.69555064 -139.75567601 444.75339519 -158 447 C-159.56355225 447.19480957 -159.56355225 447.19480957 -161.15869141 447.39355469 C-204.41949167 452.55276822 -250.32950582 450.7466408 -286.0625 423.1875 C-302.93389761 409.22588457 -315.65302475 391.37346799 -318 369 C-318.68129297 357.91807114 -318.51614384 346.85087033 -316 336 C-316.67933594 335.74476563 -317.35867188 335.48953125 -318.05859375 335.2265625 C-336.28082671 327.62791555 -368.46553613 310.5190404 -376.59765625 291.05859375 C-377.39244764 286.99203974 -376.76021529 283.03244634 -376 279 C-390.772196 269.57093872 -408.90714003 258.70181668 -427.2109375 262.453125 C-428.69100825 262.81665115 -430.17018932 263.18381958 -431.6484375 263.5546875 C-435.74504169 264.3304564 -439.8486933 264.155999 -444 264 C-444.74755859 261.77978516 -444.74755859 261.77978516 -445 259 C-443.42041016 256.77099609 -443.42041016 256.77099609 -441.0390625 254.5234375 C-439.74875122 253.27759888 -439.74875122 253.27759888 -438.43237305 252.0065918 C-437.50593994 251.1381665 -436.57950684 250.26974121 -435.625 249.375 C-433.76588124 247.58059689 -431.91036061 245.78245781 -430.05859375 243.98046875 C-429.17284668 243.1198584 -428.28709961 242.25924805 -427.37451172 241.37255859 C-423.85169798 237.8526425 -420.79376905 234.11079605 -417.73828125 230.1796875 C-415.56563037 227.45532977 -413.1620769 225.07095592 -410.65625 222.65625 C-408.95066092 220.95066092 -407.42180784 219.16260349 -405.875 217.3125 C-388.81036267 197.70146913 -365.1964211 182.93264563 -339 180 C-336.14393824 179.87138535 -333.29604569 179.85975442 -330.4375 179.875 C-329.70853516 179.87113281 -328.97957031 179.86726562 -328.22851562 179.86328125 C-327.1544043 179.86521484 -327.1544043 179.86521484 -326.05859375 179.8671875 C-325.10424438 179.86887939 -325.10424438 179.86887939 -324.13061523 179.87060547 C-321.37863899 180.03773592 -318.71182994 180.51447902 -316 181 C-316.09087891 179.90461914 -316.18175781 178.80923828 -316.27539062 177.68066406 C-323.78762868 86.14377244 -323.78762868 86.14377244 -292.80859375 49.2109375 C-260.94652855 12.41063713 -216.05595436 4.51741743 -169.6875 0.9375 C-165.47172195 0.64405837 -161.25473651 0.37781191 -157.03637695 0.12432861 C-154.92558616 -0.00454325 -152.81535736 -0.14085375 -150.70507812 -0.27783203 C-100.95852888 -3.44838703 -49.69272999 -4.41511223 0 0 Z M-156 10 C-156.70781616 10.05091797 -157.41563232 10.10183594 -158.14489746 10.15429688 C-195.76247197 12.90261282 -234.73805039 19.23316614 -261 49 C-289.49392534 83.62343253 -295.02313438 131.25493172 -296.23828125 174.55078125 C-296.27356934 175.78554199 -296.30885742 177.02030273 -296.34521484 178.29248047 C-296.40567515 180.68050256 -296.45209607 183.06893094 -296.48291016 185.45751953 C-296.50788574 186.53243652 -296.53286133 187.60735352 -296.55859375 188.71484375 C-296.57204834 189.66480225 -296.58550293 190.61476074 -296.59936523 191.59350586 C-297.07242448 194.43503233 -297.71169846 195.30135934 -300 197 C-305.53419467 198.84473156 -311.36291416 199.22436128 -316.734375 196.73046875 C-318.3888557 195.7001785 -320.01872063 194.62860723 -321.61328125 193.5078125 C-328.2654841 189.30527518 -335.37030215 189.16861408 -343 190 C-359.00229835 194.43079707 -370.75141263 206.70376547 -382.1875 218.0625 C-383.04263184 218.91050171 -383.04263184 218.91050171 -383.91503906 219.77563477 C-386.83780881 222.70980179 -389.63693292 225.70201636 -392.3359375 228.84375 C-396.46390872 233.61723811 -400.94126515 238.01372663 -405.4375 242.4375 C-407.06343804 244.03809217 -408.68726587 245.64083187 -410.30859375 247.24609375 C-411.01814209 247.94404053 -411.72769043 248.6419873 -412.45874023 249.36108398 C-414.11417836 250.74644888 -414.11417836 250.74644888 -414 252 C-412.5459375 252.12955078 -412.5459375 252.12955078 -411.0625 252.26171875 C-394.06845702 253.9619796 -378.73513679 259.18461066 -364.14135742 268.140625 C-360.70876973 270.23911003 -358.46721356 271.55262625 -354.4375 270.875 C-353.6235376 270.74456299 -352.8095752 270.61412598 -351.97094727 270.47973633 C-349.99097368 270.16001835 -348.0129498 269.82798194 -346.03710938 269.48364258 C-337.09500594 268.03732306 -328.42740676 267.72087569 -319.38696289 267.79418945 C-317.06840924 267.81245345 -314.75025893 267.81469799 -312.43164062 267.81445312 C-310.9036419 267.81917514 -309.37564622 267.82502564 -307.84765625 267.83203125 C-307.10250259 267.83427704 -306.35734894 267.83652283 -305.58961487 267.83883667 C-301.95238175 267.87472493 -298.39258899 268.02765807 -294.77905273 268.45556641 C-288.1160236 269.43888264 -288.1160236 269.43888264 -281.74584961 267.9465332 C-279.87399442 266.34410199 -278.44055593 264.70047377 -276.9375 262.75 C-275.78525081 261.44206812 -274.62623757 260.14006776 -273.4609375 258.84375 C-272.88956055 258.19148437 -272.31818359 257.53921875 -271.72949219 256.8671875 C-250.1344988 233.55288634 -215.32676857 217.78360883 -184 215 C-180.53018103 214.87542739 -177.06542903 214.88289175 -173.59375 214.90234375 C-172.6284436 214.9037587 -171.66313721 214.90517365 -170.6685791 214.90663147 C-167.61235335 214.9121892 -164.55620327 214.9247337 -161.5 214.9375 C-159.41666773 214.94252047 -157.3333343 214.94708242 -155.25 214.95117188 C-150.16663791 214.96214476 -145.08333174 214.97937989 -140 215 C-140.62693708 207.48862703 -140.62693708 207.48862703 -141.53515625 200.0078125 C-146.16470863 165.92058976 -143.16164843 131.2561323 -126 101 C-125.50064941 100.11658936 -125.50064941 100.11658936 -124.99121094 99.21533203 C-120.62642559 91.60149093 -115.71151968 84.65440813 -110 78 C-108.93458984 76.75089844 -108.93458984 76.75089844 -107.84765625 75.4765625 C-69.3584562 31.50823203 -11.73800086 24.91705284 43 18 C39.53936456 14.53936456 34.52383922 14.74479682 29.8125 14.0625 C28.63719727 13.89065186 27.46189453 13.71880371 26.25097656 13.54174805 C15.61534645 12.07290782 4.95354035 11.12851546 -5.75 10.3125 C-6.5369223 10.25192413 -7.3238446 10.19134827 -8.13461304 10.12893677 C-32.01915249 8.31904468 -55.86607377 7.79484215 -79.8125 7.8125 C-80.53289963 7.81261959 -81.25329926 7.81273918 -81.99552917 7.8128624 C-106.70368751 7.81803855 -131.34771876 8.20135357 -156 10 Z M-291.1796875 336.19140625 C-296.28359464 344.06631878 -293.18749793 355.44667106 -291.375 364.125 C-288.37302065 376.91823958 -283.30267743 387.73219182 -275 398 C-274.48050781 398.69480469 -273.96101563 399.38960937 -273.42578125 400.10546875 C-257.91924966 419.67416478 -230.31633755 427.76180096 -206.59130859 430.71704102 C-193.59574958 432.13609631 -180.68074908 432.11981898 -167.625 432.0625 C-165.61718862 432.05747236 -163.60937602 432.0529117 -161.6015625 432.04882812 C-156.73434414 432.03792865 -151.86718599 432.02073451 -147 432 C-147 431.34 -147 430.68 -147 430 C-148.08796875 429.64808594 -149.1759375 429.29617188 -150.296875 428.93359375 C-164.23728417 424.30376726 -175.47286408 418.48933651 -186 408 C-186.84498047 407.18982422 -186.84498047 407.18982422 -187.70703125 406.36328125 C-198.76684058 394.77820393 -202.48778433 378.33581215 -202.42871094 362.81591797 C-202.15224138 353.64374832 -199.65255401 345.34260094 -196.42700195 336.78564453 C-196.02515434 335.71831589 -196.02515434 335.71831589 -195.6151886 334.62942505 C-195.41217636 334.09171478 -195.20916412 333.55400452 -195 333 C-195.62766266 333.00222061 -196.25532532 333.00444122 -196.90200806 333.00672913 C-203.55559711 333.02920366 -210.20917505 333.04407816 -216.86279297 333.05493164 C-219.33154744 333.05989799 -221.80029907 333.06667331 -224.26904297 333.07543945 C-236.63866209 333.11819739 -248.99185453 333.10950879 -261.3515625 332.5625 C-262.23486237 332.52403458 -263.11816223 332.48556915 -264.02822876 332.44593811 C-268.67065801 332.21243543 -273.16269896 331.73290646 -277.75 330.9375 C-283.44441695 330.47400095 -287.03036037 332.3422716 -291.1796875 336.19140625 Z " fill="#232851" transform="translate(1047,390)"/>
<path d="M0 0 C60.15071172 23.34540359 121.29652018 33.98620032 185 43.1875 C240.70023938 51.23704871 240.70023938 51.23704871 266.62890625 56.03125 C267.52724623 56.19548965 268.4255862 56.35972931 269.35114861 56.52894592 C271.86298246 56.99116753 274.37235997 57.46467853 276.88110352 57.94335938 C277.59900873 58.07585587 278.31691395 58.20835236 279.05657387 58.34486389 C283.9640704 59.30577498 288.41616953 60.83492629 293.0625 62.6875 C292.73570357 67.9162429 291.50950886 71.04219385 288.59765625 75.36328125 C286.07816272 79.17778164 283.87899607 83.17966876 281.61328125 87.1484375 C280.0625 89.6875 280.0625 89.6875 278.0625 91.6875 C270.18838098 91.28321724 262.47068408 89.06047888 254.80859375 87.29296875 C253.28944833 86.94567791 251.77020979 86.59879417 250.25088501 86.25228882 C247.01724866 85.51427338 243.78409819 84.77417957 240.55130005 84.03250122 C232.01353578 82.07460967 223.47136625 80.13603937 214.9296875 78.1953125 C213.64681319 77.90369201 213.64681319 77.90369201 212.33802223 77.60618019 C196.94405566 74.10711468 181.54522921 70.63185433 166.125 67.25 C165.03513794 67.01079834 163.94527588 66.77159668 162.8223877 66.52514648 C146.01743576 62.85091644 129.15442155 59.5560745 112.25 56.375 C95.28992952 53.17778109 78.5443385 49.89137202 62.0625 44.6875 C61.10746582 44.39681641 60.15243164 44.10613281 59.16845703 43.80664062 C42.43117921 38.65670899 26.58652606 31.67755284 10.61401367 24.56982422 C-57.90989707 -6.59009798 -57.90989707 -6.59009798 -130.78393555 1.08642578 C-151.81818301 9.29480559 -172.16674787 19.71691229 -192.3125 29.875 C-226.98627043 47.34939106 -259.04931218 62.35274427 -298.0234375 65.0390625 C-309.76362794 65.91900908 -320.02200369 68.27023203 -330.9375 72.6875 C-331.64616211 72.97415527 -332.35482422 73.26081055 -333.08496094 73.55615234 C-359.08219016 84.31869925 -384.48164872 97.8231805 -408.9375 111.6875 C-409.95956543 112.26564453 -410.98163086 112.84378906 -412.03466797 113.43945312 C-424.59292215 120.56422552 -437.05337715 127.80595086 -449.17797852 135.65209961 C-454.93805347 139.31472088 -459.61656837 141.57298512 -466.5625 141.8125 C-470.83962576 140.38679141 -471.8341922 138.60161608 -473.9921875 134.79296875 C-475.95036714 130.43156865 -476.50303336 126.4785279 -475.9375 121.6875 C-473.6484375 119.4921875 -473.6484375 119.4921875 -470.3125 117.5625 C-469.69858398 117.19761475 -469.08466797 116.83272949 -468.45214844 116.45678711 C-467.06603724 115.63675563 -465.67294483 114.82845129 -464.27441406 114.02978516 C-461.74379823 112.57624088 -459.24249795 111.07926445 -456.7421875 109.57421875 C-446.10948716 103.19403066 -435.37180037 97.01326482 -424.484375 91.07861328 C-422.64873903 90.07598159 -420.8157194 89.06855458 -418.984375 88.05810547 C-379.91476863 66.50847499 -330.84897963 41.88579931 -284.9375 48.6875 C-276.50786768 49.46820452 -269.43234727 48.91935825 -261.4921875 46.15234375 C-260.71392105 45.88618256 -259.9356546 45.62002136 -259.13380432 45.34579468 C-250.77360024 42.40452187 -242.83773056 38.68068109 -234.875 34.8125 C-233.31122499 34.06305865 -231.74700565 33.3145438 -230.18237305 32.56689453 C-221.89150513 28.59703059 -213.62949653 24.56750282 -205.36585999 20.54135132 C-203.32735219 19.54817028 -201.28872431 18.55523651 -199.25 17.5625 C-198.58003998 17.2362262 -197.91007996 16.90995239 -197.21981812 16.5737915 C-126.33745199 -17.9087152 -75.57196815 -29.34012399 0 0 Z " fill="#232952" transform="translate(1011.9375,1188.3125)"/>
<path d="M0 0 C3.48958045 2.38414828 6.28529849 4.77870048 8.28125 8.55859375 C8.59765674 12.10198552 7.96368339 15.28584003 7.21875 18.74609375 C6.97608398 20.07930664 6.97608398 20.07930664 6.72851562 21.43945312 C6.03440697 25.17977144 5.22468488 28.87338308 4.28125 32.55859375 C5.168125 32.80609375 6.055 33.05359375 6.96875 33.30859375 C8.40639652 33.72475459 9.84386877 34.14151756 11.28125 34.55859375 C12.27382813 34.83832031 13.26640625 35.11804688 14.2890625 35.40625 C28.76014771 39.63125951 41.14872089 46.18991318 50.28125 58.55859375 C50.94060547 59.44611328 50.94060547 59.44611328 51.61328125 60.3515625 C60.52744055 73.41309501 61.79584726 89.62245569 59.85546875 104.9140625 C57.04869444 117.67369297 50.62336055 128.5246431 41.28125 137.55859375 C40.62125 138.20441406 39.96125 138.85023438 39.28125 139.515625 C21.54005362 155.93338536 -7.84514759 163.89674541 -31.63671875 163.7265625 C-33.71875 163.55859375 -33.71875 163.55859375 -34.71875 162.55859375 C-34.75955783 160.55901011 -34.76129356 158.55814121 -34.71875 156.55859375 C-29.34092193 154.10428295 -23.96457995 152.40608514 -18.28125 150.80859375 C2.10074585 144.85829022 23.40009275 135.91169826 34.28125 116.55859375 C41.11026452 101.82415674 42.07007477 86.6906402 36.59375 71.37109375 C31.81932592 60.43555625 24.07944296 53.85609249 13.21875 49.30859375 C8.9655772 47.71115796 4.71388131 46.54362293 0.28125 45.55859375 C0.10601807 46.170979 -0.06921387 46.78336426 -0.24975586 47.41430664 C-1.99667424 53.39337338 -3.97591334 59.21019672 -6.28125 64.99609375 C-6.61697021 65.84719727 -6.95269043 66.69830078 -7.29858398 67.57519531 C-10.20337658 74.73011653 -13.70220197 81.48332006 -17.65649414 88.11499023 C-20.69880724 93.4762154 -21.23718227 96.52896852 -19.71875 102.55859375 C-18.57084643 105.05059291 -18.57084643 105.05059291 -17.09375 107.12109375 C-15.1056921 110.44218468 -14.71875 111.44234715 -14.71875 115.49609375 C-15.71875 118.55859375 -15.71875 118.55859375 -18.71875 120.55859375 C-25.48447887 121.72697263 -30.80375053 119.69088661 -36.71875 116.55859375 C-37.12492554 117.44937622 -37.12492554 117.44937622 -37.53930664 118.3581543 C-42.71845656 128.02068342 -54.22986687 136.64741462 -63.71875 141.55859375 C-64.40195312 141.914375 -65.08515625 142.27015625 -65.7890625 142.63671875 C-71.20605121 145.04914287 -76.87827562 145.36355959 -82.71875 144.55859375 C-89.47677346 141.2410186 -92.47052765 136.68659292 -94.90625 129.74609375 C-100.26898558 112.52224889 -98.00914976 95.47909594 -89.71875 79.55859375 C-85.56164442 72.92783858 -80.67925406 67.1891809 -75.08984375 61.7265625 C-73.45992129 59.59674133 -73.45992129 59.59674133 -73.80078125 56.796875 C-74.90703957 52.89437226 -76.33156697 49.26489746 -77.96875 45.55859375 C-78.25621094 44.8728125 -78.54367187 44.18703125 -78.83984375 43.48046875 C-81.55393659 37.27005544 -85.04245547 32.59774195 -90.53125 28.49609375 C-93.65416372 25.92189155 -93.65416372 25.92189155 -94.21875 22.74609375 C-93.71875 20.55859375 -93.71875 20.55859375 -92.71875 19.55859375 C-83.05617716 19.4709116 -73.38659192 21.88778111 -66.2890625 28.74902344 C-60.61515639 35.28742395 -59.11985769 44.99796856 -56.96875 53.12109375 C-53.96790384 64.03455175 -50.44710554 73.80689641 -44.71875 83.55859375 C-44.20957031 84.44933594 -43.70039062 85.34007812 -43.17578125 86.2578125 C-41.07054482 90.02775442 -41.07054482 90.02775442 -37.71875 92.55859375 C-37.44184326 91.83365723 -37.16493652 91.1087207 -36.87963867 90.36181641 C-35.7760527 87.69696381 -34.53047804 85.23450736 -33.14453125 82.70703125 C-26.60320597 70.59545751 -21.04993596 58.62840492 -16.71875 45.55859375 C-17.63370239 45.83908569 -17.63370239 45.83908569 -18.56713867 46.12524414 C-21.34339288 46.96906715 -24.12460955 47.7952084 -26.90625 48.62109375 C-27.86595703 48.91564453 -28.82566406 49.21019531 -29.81445312 49.51367188 C-30.74580078 49.78759766 -31.67714844 50.06152344 -32.63671875 50.34375 C-33.49031982 50.600354 -34.3439209 50.85695801 -35.22338867 51.12133789 C-38.09136715 51.62388651 -39.95746341 51.47220534 -42.71875 50.55859375 C-45.28562367 46.70828325 -44.55163724 44.97289612 -43.71875 40.55859375 C-33.41543906 36.68004854 -23.6837618 34.52397587 -12.71875 33.55859375 C-12.52363275 30.80894147 -12.33738567 28.05917243 -12.15625 25.30859375 C-12.10017578 24.53128906 -12.04410156 23.75398437 -11.98632812 22.953125 C-11.93798828 22.19902344 -11.88964844 21.44492187 -11.83984375 20.66796875 C-11.76914673 19.6310791 -11.76914673 19.6310791 -11.69702148 18.57324219 C-11.72058199 16.38873357 -12.0127757 14.62549243 -12.71875 12.55859375 C-14.51580707 11.41712708 -14.51580707 11.41712708 -16.71875 10.55859375 C-18.29758306 9.60598691 -19.85990498 8.62557903 -21.40625 7.62109375 C-22.19386719 7.11707031 -22.98148438 6.61304688 -23.79296875 6.09375 C-25.71875 4.55859375 -25.71875 4.55859375 -26.71875 1.55859375 C-21.56809228 -6.16739283 -7.51686458 -2.97763121 0 0 Z M-67.71875 72.55859375 C-76.53223437 81.37207812 -82.98472814 94.37269113 -83.03125 106.93359375 C-82.931787 113.10029956 -82.40002086 119.39179546 -78.2734375 124.265625 C-76.71174342 125.76592489 -76.71174342 125.76592489 -74.15625 126.12109375 C-64.91996495 124.60970165 -56.96963743 117.15356673 -50.71875 110.55859375 C-49.6678224 108.92356196 -48.65094096 107.26411355 -47.71875 105.55859375 C-48.16863281 105.10355469 -48.61851562 104.64851563 -49.08203125 104.1796875 C-57.25307473 95.02615383 -61.71202752 83.63264418 -66.71875 72.55859375 C-67.04875 72.55859375 -67.37875 72.55859375 -67.71875 72.55859375 Z " fill="#232952" transform="translate(790.71875,965.44140625)"/>
<path d="M0 0 C7.32400016 0.13078572 14.74382808 2.74382808 20 8 C20.0625 10.4375 20.0625 10.4375 19 13 C17.32052217 13.72448063 15.6337503 14.4382446 13.90942383 15.04833984 C11.57958154 16.20953729 10.39717853 17.5890448 8.76171875 19.6015625 C8.23924561 20.23658691 7.71677246 20.87161133 7.1784668 21.52587891 C6.78957275 22.01233887 6.40067871 22.49879883 6 23 C11.85311876 23.17364341 17.70472417 23.30034825 23.55981445 23.38452148 C25.54933807 23.41962406 27.53868239 23.46731998 29.52758789 23.52807617 C32.39514447 23.61345001 35.26030637 23.65278867 38.12890625 23.68359375 C39.01147598 23.71972275 39.89404572 23.75585175 40.80335999 23.79307556 C44.55654712 23.79543695 47.01956858 23.76304799 50.04806519 21.40603638 C51.90933501 19.52227153 51.90933501 19.52227153 53.48008728 17.53773499 C55 16 55 16 58.4375 15.6875 C65.32011034 18.22319855 70.96577299 22.88359131 75 29 C75.0625 31.6875 75.0625 31.6875 74 34 C71.46916729 36.44647162 70.5747073 37 67 37 C67.0169693 37.82827805 67.0339386 38.65655609 67.05142212 39.50993347 C67.20962733 47.32247904 67.35780604 55.13513697 67.49477577 62.94808483 C67.56554259 66.9646252 67.64016002 70.98101646 67.72363281 74.99731445 C67.8040729 78.87455566 67.87432578 82.75186088 67.93757248 86.62941933 C67.96346022 88.10742281 67.99299421 89.58536715 68.02626419 91.06322289 C68.07230149 93.1361031 68.10527115 95.2088163 68.13525391 97.28198242 C68.16856308 99.05069954 68.16856308 99.05069954 68.20254517 100.85514832 C67.99611606 104.06030471 67.50990246 106.17608964 66 109 C62.90219052 111.06520632 62.0459519 111.29477024 58.5 111.3125 C57.33984375 111.33763672 57.33984375 111.33763672 56.15625 111.36328125 C53.47132014 110.91092894 52.64121595 110.13658295 51 108 C46.57281128 94.71843383 50.64114359 79.99540003 51 66 C21.63 66 -7.74 66 -38 66 C-38 73.92 -38 81.84 -38 90 C-35.73850098 89.98428955 -33.47700195 89.9685791 -31.14697266 89.95239258 C-23.68711365 89.90275289 -16.22724747 89.86957359 -8.76726723 89.84456348 C-4.24286816 89.82888657 0.28136214 89.80761161 4.80566406 89.77368164 C9.16932465 89.74116004 13.53282261 89.72316226 17.896595 89.71536827 C19.56403795 89.70981176 21.23147169 89.69896166 22.89884567 89.68280983 C25.22882289 89.66113068 27.55812227 89.65802899 29.88818359 89.65942383 C30.58229843 89.648638 31.27641327 89.63785217 31.99156189 89.6267395 C33.91220093 89.63923645 33.91220093 89.63923645 37 90 C39 93 39 93 38.8125 95.5625 C38 98 38 98 35 100 C31.86787415 100.24050903 31.86787415 100.24050903 27.95825195 100.22705078 C27.24580322 100.22734283 26.53335449 100.22763489 25.79931641 100.22793579 C23.44551393 100.22654296 21.0920284 100.21098419 18.73828125 100.1953125 C17.10589267 100.1915822 15.47350185 100.18873531 13.84111023 100.18673706 C9.54533707 100.17910194 5.24969921 100.15945452 0.95397949 100.1373291 C-3.42975026 100.11686805 -7.81350188 100.10773479 -12.19726562 100.09765625 C-20.79823917 100.07620849 -29.39910275 100.04207404 -38 100 C-37.96003906 101.09441406 -37.92007812 102.18882813 -37.87890625 103.31640625 C-38 107 -38 107 -39.9375 109.9375 C-43.55836457 112.37604145 -45.65987217 112.52682768 -49.9140625 112.46875 C-52.57113981 111.87165398 -53.35402169 111.1631722 -55 109 C-55.35403442 106.42919922 -55.35403442 106.42919922 -55.32470703 103.3046875 C-55.3195256 101.54378784 -55.3195256 101.54378784 -55.3142395 99.74731445 C-55.29561859 98.46945068 -55.27699768 97.19158691 -55.2578125 95.875 C-55.24965407 94.53150229 -55.24299898 93.1879947 -55.23776245 91.84448242 C-55.22060174 88.28393411 -55.18643624 84.72376277 -55.14770508 81.16339111 C-55.08900283 75.57010874 -55.05236589 69.97663897 -55.02025604 64.38314819 C-55.01196471 63.00344156 -55.00259186 61.62374099 -54.99213409 60.24404907 C-54.91151706 49.17220693 -55.18654107 38.1551422 -55.81375122 27.09692383 C-55.86602875 26.05560303 -55.91830627 25.01428223 -55.97216797 23.94140625 C-56.02533173 23.03076416 -56.07849548 22.12012207 -56.13327026 21.18188477 C-56 19 -56 19 -54 17 C-51.828125 17.13671875 -51.828125 17.13671875 -49.25 17.6875 C-48.40953125 17.85636719 -47.5690625 18.02523437 -46.703125 18.19921875 C-44 19 -44 19 -38 22 C-38 33.22 -38 44.44 -38 56 C-8.63 56 20.74 56 51 56 C51 48.74 51 41.48 51 34 C48.73850098 34.01047363 46.47700195 34.02094727 44.14697266 34.03173828 C36.68708987 34.06483151 29.2272039 34.08695104 21.76726723 34.10362434 C17.2429174 34.11407551 12.71864259 34.1282589 8.19433594 34.15087891 C3.83068476 34.17255993 -0.53289413 34.18455858 -4.896595 34.18975449 C-6.56402347 34.19345879 -8.23144785 34.20069207 -9.89884567 34.21146011 C-12.22871295 34.2259122 -14.55827894 34.22798061 -16.88818359 34.22705078 C-17.92935585 34.23783661 -17.92935585 34.23783661 -18.99156189 34.24884033 C-23.77189568 34.22810432 -23.77189568 34.22810432 -26 32 C-26.25 29 -26.25 29 -26 26 C-24 24 -24 24 -20.0859375 23.8046875 C-18.51550649 23.81799624 -16.94513779 23.84186398 -15.375 23.875 C-14.57320312 23.88402344 -13.77140625 23.89304687 -12.9453125 23.90234375 C-10.96341477 23.92593777 -8.98167019 23.96180935 -7 24 C-6.731875 22.783125 -6.46375 21.56625 -6.1875 20.3125 C-6.00574219 19.50296875 -5.82398438 18.6934375 -5.63671875 17.859375 C-5.17097835 15.76782916 -4.71687079 13.67368351 -4.26953125 11.578125 C-3.88861328 9.83789062 -3.88861328 9.83789062 -3.5 8.0625 C-3.2628125 6.96035156 -3.025625 5.85820313 -2.78125 4.72265625 C-2 2 -2 2 0 0 Z " fill="#232952" transform="translate(1209,957)"/>
<path d="M0 0 C2.33009442 1.88645723 3.75958695 3.08784459 4.53125 6.015625 C4.44130247 12.44687324 3.10791559 18.25079208 1.24804688 24.37792969 C0.35045336 27.51333796 -0.06392646 29.70522799 0.6328125 32.91796875 C1.81738495 35.05939338 1.81738495 35.05939338 3.6640625 35.96875 C7.80181676 36.02410457 11.5306026 34.21644919 15.3359375 32.73828125 C19.63658782 31.16889071 22.57752099 30.73270173 27 32 C28.9375 33.625 28.9375 33.625 30 36 C30.20282434 39.58323007 29.83554078 41.87287754 27.66796875 44.796875 C21.63463034 50.73820172 13.82603958 53.24639348 6 56 C4.94039062 56.38542969 3.88078125 56.77085937 2.7890625 57.16796875 C0 58 0 58 -4 58 C-2.16397296 82.89478149 -2.16397296 82.89478149 0.125 107.75 C0.20024902 108.49096924 0.27549805 109.23193848 0.35302734 109.99536133 C0.73523195 113.61636462 0.73523195 113.61636462 2 117 C3.87425366 117.74432083 5.77619896 118.41925152 7.6875 119.0625 C19.55190754 123.51165283 34.51746513 131.71072177 40.2421875 143.57421875 C41.28167983 146.90166584 41.37782712 149.5365847 41 153 C39.5 155.4375 39.5 155.4375 37 157 C32.94771249 157.67538125 30.57416143 157.84854797 26.94921875 155.89453125 C23.57556353 153.45108776 20.67345482 150.70348193 17.8125 147.6875 C12.91676402 142.58586858 6.86361083 138.88849981 1 135 C0.92523437 135.6290625 0.85046875 136.258125 0.7734375 136.90625 C-0.4619731 144.9485308 -3.60638729 149.50942692 -9.1875 155.25 C-19.94101393 161.94107533 -33.27383952 163.60135142 -45.625 161.3125 C-53.38678511 159.32336869 -59.46006619 155.60354009 -64 149 C-66.70740287 144.35873793 -66.62261038 139.22034853 -66 134 C-64.13202232 127.40296491 -59.70786778 122.63311778 -54 119 C-46.83829096 115.93467707 -39.51292338 113.85664957 -31.69921875 113.90234375 C-30.72275391 113.90556641 -29.74628906 113.90878906 -28.74023438 113.91210938 C-27.73283203 113.92048828 -26.72542969 113.92886719 -25.6875 113.9375 C-24.66076172 113.94201172 -23.63402344 113.94652344 -22.57617188 113.95117188 C-20.05072118 113.96291816 -17.52539095 113.97934435 -15 114 C-15.23009766 112.45119141 -15.23009766 112.45119141 -15.46484375 110.87109375 C-16.23611323 104.62340286 -16.37786417 98.3495461 -16.5625 92.0625 C-16.5846759 91.36832977 -16.60685181 90.67415955 -16.62969971 89.95895386 C-16.96957109 79.03323206 -17.01515464 68.11800059 -16.95703125 57.1875 C-16.9513765 55.90306503 -16.94572174 54.61863007 -16.93989563 53.29527283 C-16.90954519 46.80005004 -16.86132724 40.30566359 -16.78735352 33.81079102 C-16.77176142 31.3959995 -16.75668302 28.9812046 -16.7421875 26.56640625 C-16.71418816 24.88109802 -16.71418816 24.88109802 -16.68562317 23.16174316 C-16.6822142 22.12940552 -16.67880524 21.09706787 -16.67529297 20.03344727 C-16.66561493 19.13006119 -16.65593689 18.22667511 -16.64596558 17.2959137 C-17.07658073 14.50337385 -17.79322452 13.70711788 -20 12 C-22.03272642 10.88159229 -24.09905051 9.82304007 -26.1875 8.8125 C-27.27417969 8.28269531 -28.36085938 7.75289062 -29.48046875 7.20703125 C-30.31191406 6.80871094 -31.14335938 6.41039062 -32 6 C-31.234375 1.21875 -31.234375 1.21875 -29.125 -0.75 C-20.98107387 -5.54054478 -8.3262549 -3.72526931 0 0 Z M-54 134 C-55.18683698 137.08577615 -55.17178439 138.48464683 -54.125 141.625 C-50.61043781 145.55304009 -46.09036527 146.62326976 -40.94921875 147.25 C-33.40377505 147.49193807 -25.75379433 146.08474847 -20 141 C-16.89962295 136.47982411 -15.44431867 132.55681327 -16 127 C-28.26500054 123.99483054 -45.13552977 123.92229102 -54 134 Z " fill="#232952" transform="translate(599,937)"/>
<path d="M0 0 C6.99477248 0.08671206 14.46486198 3.34331556 20.125 7.3125 C20.4375 10 20.4375 10 20.125 12.3125 C18.805 12.6425 17.485 12.9725 16.125 13.3125 C39.57713119 43.75037239 71.83441274 56.8500654 108.125 66.3125 C108.75 68.125 108.75 68.125 109.125 70.3125 C107.0562672 73.41559921 106.59082333 73.74127026 103.375 75.0625 C100.02770518 76.60093352 98.33270962 78.0820407 96.1875 81.0625 C94.60960951 83.00548749 93.64827787 84.12513992 91.28125 84.97265625 C73.89765667 86.23750726 52.72022103 69.42706665 40.54296875 59.12890625 C38.02306523 56.90266078 35.56673732 54.62411339 33.125 52.3125 C32.24070312 51.49265625 31.35640625 50.6728125 30.4453125 49.828125 C23.42576262 43.10685627 17.79400987 35.80743948 12.2265625 27.87158203 C10.89692097 25.98969133 9.52140481 24.14528131 8.125 22.3125 C7.35929687 23.36824219 7.35929687 23.36824219 6.578125 24.4453125 C-4.75530333 39.8378765 -17.12828368 54.20390886 -32.23925781 66.02734375 C-33.39751424 66.93735298 -34.54995944 67.85478129 -35.69824219 68.77734375 C-49.7497969 80.06362004 -64.73512912 89.31577712 -80.75 97.5625 C-81.48081787 97.94567383 -82.21163574 98.32884766 -82.96459961 98.72363281 C-87.05920324 100.76495606 -90.18969902 101.95585476 -94.875 101.3125 C-95.535 100.6525 -96.195 99.9925 -96.875 99.3125 C-96.72643371 96.23717772 -96.37285017 94.78490449 -94.1171875 92.64453125 C-93.33601563 92.14308594 -92.55484375 91.64164063 -91.75 91.125 C-90.39455078 90.23167969 -90.39455078 90.23167969 -89.01171875 89.3203125 C-87.97660156 88.65773438 -86.94148438 87.99515625 -85.875 87.3125 C-63.51146827 72.72292785 -42.39517603 56.49152632 -25.875 35.3125 C-25.44815918 34.7673877 -25.02131836 34.22227539 -24.58154297 33.66064453 C-17.0334506 23.94333805 -10.7873629 13.68560736 -4.82373047 2.93212891 C-3.28718973 0.30901742 -3.25609858 0.35392376 0 0 Z " fill="#232952" transform="translate(1418.875,900.6875)"/>
<path d="M0 0 C5.84812767 3.19228623 11.47752657 7.29116376 15 13 C15.25 16.125 15.25 16.125 14 19 C12.83855469 19.57105469 11.67710938 20.14210938 10.48046875 20.73046875 C8.56963966 21.70903261 8.56963966 21.70903261 7 23 C5.92519222 26.30668643 5.92519222 26.30668643 6.0625 30.1875 C6.03615479 31.26692871 6.03615479 31.26692871 6.00927734 32.36816406 C5.96107494 34.91388668 5.97438217 37.453947 6 40 C6.01047363 41.0430127 6.02094727 42.08602539 6.03173828 43.16064453 C6.04889893 44.81555908 6.04889893 44.81555908 6.06640625 46.50390625 C6.07885376 48.17706909 6.07885376 48.17706909 6.09155273 49.8840332 C6.11357521 52.10026562 6.15300273 54.31640432 6.21118164 56.53198242 C6.22656982 57.55783447 6.24195801 58.58368652 6.2578125 59.640625 C6.2798877 60.55360352 6.30196289 61.46658203 6.32470703 62.40722656 C5.9269666 65.58316897 4.88636326 67.43587945 3 70 C0.66015625 70.8125 0.66015625 70.8125 -1.9375 71 C-2.79214844 71.0825 -3.64679688 71.165 -4.52734375 71.25 C-7.5657153 70.94280288 -8.82080323 70.10606936 -11 68 C-12.45870372 63.62388885 -12.1434016 59.39756558 -12.125 54.8125 C-12.12886719 53.93013672 -12.13273437 53.04777344 -12.13671875 52.13867188 C-12.12119301 40.7350171 -11.47561741 29.41481789 -11 18 C-35.75 18 -60.5 18 -86 18 C-86 28.23 -86 38.46 -86 49 C-81.68035156 48.98839844 -77.36070313 48.97679687 -72.91015625 48.96484375 C-69.47483092 48.95841684 -66.03950729 48.95299261 -62.60417938 48.94824982 C-58.97284243 48.94296004 -55.34152865 48.93588643 -51.71020508 48.92456055 C-48.21540025 48.91372816 -44.72061796 48.90772242 -41.22579765 48.90512276 C-39.23760611 48.90236449 -37.24942369 48.89455312 -35.26124573 48.88670349 C-34.06007614 48.88662796 -32.85890656 48.88655243 -31.62133789 48.88647461 C-30.02582848 48.88314369 -30.02582848 48.88314369 -28.39808655 48.87974548 C-26 49 -26 49 -25 50 C-24.875 53.5 -24.875 53.5 -25 57 C-26 58 -26 58 -28.39808655 58.12025452 C-29.46175949 58.11803391 -30.52543243 58.11581329 -31.62133789 58.11352539 C-32.82250748 58.11344986 -34.02367706 58.11337433 -35.26124573 58.11329651 C-36.5685112 58.10813522 -37.87577667 58.10297394 -39.22265625 58.09765625 C-40.56644132 58.09579198 -41.91022707 58.09436812 -43.25401306 58.09336853 C-46.79682277 58.08954402 -50.3395917 58.07971432 -53.88238525 58.06866455 C-57.49515227 58.05844899 -61.10792584 58.0538706 -64.72070312 58.04882812 C-71.8138188 58.03809198 -78.90690674 58.02101636 -86 58 C-85.96519531 58.75925781 -85.93039062 59.51851562 -85.89453125 60.30078125 C-85.86746094 61.29464844 -85.84039063 62.28851562 -85.8125 63.3125 C-85.76029297 64.79169922 -85.76029297 64.79169922 -85.70703125 66.30078125 C-86 69 -86 69 -87.36547852 70.81469727 C-89.54569675 72.39572184 -91.27096265 72.64478237 -93.9375 72.9375 C-95.21947266 73.10572266 -95.21947266 73.10572266 -96.52734375 73.27734375 C-99 73 -99 73 -101.11843872 71.39346313 C-103.58226355 68.2593245 -103.52735393 66.38967216 -103.57763672 62.42724609 C-103.59118698 61.77638535 -103.60473724 61.1255246 -103.61869812 60.4549408 C-103.65828097 58.31091463 -103.66954142 56.16778919 -103.6796875 54.0234375 C-103.69975348 52.53176924 -103.72126863 51.04011983 -103.74417114 49.54849243 C-103.78795848 46.42653074 -103.81849279 43.30481779 -103.83886719 40.18261719 C-103.86546837 36.17603037 -103.91840289 32.1703393 -103.98036003 28.16415977 C-104.02621111 25.08624506 -104.0615486 22.00828435 -104.09332657 18.93019485 C-104.10921394 17.45254272 -104.12760725 15.97491538 -104.14852524 14.4973259 C-104.17546058 12.43613639 -104.18906203 10.37529817 -104.19873047 8.31396484 C-104.20887177 7.14022308 -104.21901306 5.96648132 -104.22946167 4.75717163 C-104 2 -104 2 -102 0 C-95.80655144 0.13464019 -86.43728606 2.56271394 -82 7 C-79.9159411 7.131052 -77.82741312 7.19139669 -75.73950195 7.22460938 C-75.08575089 7.23599945 -74.43199982 7.24738953 -73.75843811 7.25912476 C-66.90669625 7.36991487 -60.05386524 7.41723774 -53.20141602 7.45996094 C-49.95055208 7.48221878 -46.70083942 7.52395276 -43.45043945 7.58300781 C-39.52637024 7.65416684 -35.60338268 7.69080311 -31.6787014 7.70307922 C-30.1847131 7.71347105 -28.69075692 7.7358755 -27.19713783 7.77067566 C-19.08522401 8.23884777 -19.08522401 8.23884777 -11.78378296 5.42797852 C-10.30491562 3.68712036 -9.17414862 1.95019081 -8 0 C-5.04812912 -1.47593544 -3.16730704 -0.7559668 0 0 Z " fill="#232952" transform="translate(1472,1028)"/>
<path d="M0 0 C6.44832053 0.08486525 13.60416068 0.48697318 18.37255859 5.25537109 C18.21821845 8.26500391 17.81179652 9.78234564 15.74755859 12.00537109 C13.37255859 13.25537109 13.37255859 13.25537109 6.37255859 14.25537109 C6.37255859 19.20537109 6.37255859 24.15537109 6.37255859 29.25537109 C14.96212674 29.71106422 14.96212674 29.71106422 22.53271484 26.51318359 C23.98298055 24.48800437 25.16619708 22.43105467 26.37255859 20.25537109 C27.82177734 18.50537109 27.82177734 18.50537109 29.37255859 17.25537109 C35.32049298 17.01745372 38.78946608 19.48031466 43.27880859 23.21630859 C46.27503922 26.13427947 48.94613435 29.27941845 50.37255859 33.25537109 C50.36474609 35.36865234 50.36474609 35.36865234 49.37255859 37.25537109 C44.42343216 39.42732784 39.98346736 39.52084702 34.69287109 39.45068359 C33.88010712 39.4478537 33.06734314 39.4450238 32.22994995 39.44210815 C29.65233185 39.43097728 27.07507041 39.40588625 24.49755859 39.38037109 C22.7423553 39.37033211 20.98714653 39.36120787 19.23193359 39.35302734 C14.94522969 39.33276882 10.65929001 39.29360755 6.37255859 39.25537109 C6.37255859 46.18537109 6.37255859 53.11537109 6.37255859 60.25537109 C13.24191898 60.31022237 20.10859582 60.3128732 26.97802734 60.26757812 C29.31363346 60.25947738 31.64933398 60.26553097 33.98486328 60.28613281 C37.34711785 60.313317 40.70574486 60.28925812 44.06787109 60.25537109 C45.10871857 60.2747876 46.14956604 60.2942041 47.22195435 60.31420898 C52.72677074 60.27419334 52.72677074 60.27419334 57.28533936 57.53515625 C58.88141586 55.47028952 58.88141586 55.47028952 60.12179565 53.32421875 C62.10025109 50.05171782 64.80298653 46.74443234 68.37255859 45.25537109 C74.2623401 46.1668027 77.52350011 48.61582928 81.62255859 52.63037109 C82.39599609 53.35353516 82.39599609 53.35353516 83.18505859 54.09130859 C90.05003082 60.60241628 90.05003082 60.60241628 90.87255859 64.81787109 C90.37255859 67.25537109 90.37255859 67.25537109 88.29327679 68.88432598 C84.69351041 70.57413026 82.1151459 70.63011235 78.1410675 70.6295929 C77.42358485 70.6335673 76.70610219 70.63754171 75.96687764 70.64163655 C73.56845433 70.65124288 71.17062334 70.63945205 68.7722168 70.62768555 C67.05060608 70.630114 65.32899677 70.63383384 63.60739136 70.63874817 C58.93613916 70.64815133 54.26509668 70.63873769 49.59386086 70.62541604 C44.70874769 70.6141025 39.82364485 70.61820884 34.93852234 70.62016296 C26.73803274 70.62104572 18.53762584 70.60996732 10.3371582 70.59155273 C0.8468616 70.57036425 -8.64331403 70.56687983 -18.1336295 70.57311469 C-27.25594541 70.57880158 -36.37821859 70.57317204 -45.50052834 70.56194115 C-49.38686727 70.55728836 -53.27318013 70.55642421 -57.1595211 70.55852699 C-61.73054487 70.56040537 -66.30144481 70.55234088 -70.87244034 70.5364666 C-72.55349655 70.53221094 -74.23456531 70.53138175 -75.91562462 70.5341568 C-78.2028544 70.53736074 -80.48970997 70.52834265 -82.77690125 70.5160675 C-84.05907374 70.51401464 -85.34124624 70.51196177 -86.66227245 70.50984669 C-89.62744141 70.25537109 -89.62744141 70.25537109 -91.62744141 68.25537109 C-91.25244141 64.63037109 -91.25244141 64.63037109 -90.62744141 61.25537109 C-87.03481081 60.05782756 -83.77287534 60.12338356 -80.03491211 60.1418457 C-79.26394196 60.14169968 -78.4929718 60.14155365 -77.69863892 60.1414032 C-75.15013822 60.1420999 -72.60171059 60.149881 -70.05322266 60.15771484 C-68.28631124 60.15957988 -66.5193993 60.16100338 -64.75248718 60.16200256 C-60.10165988 60.16582097 -55.4508638 60.17564551 -50.80004883 60.18670654 C-46.05436628 60.19693518 -41.30867868 60.2015033 -36.56298828 60.20654297 C-27.2511256 60.21726836 -17.9392861 60.2343367 -8.62744141 60.25537109 C-8.65471817 59.51843521 -8.68199493 58.78149933 -8.71009827 58.02223206 C-8.96572156 51.09141794 -9.21642894 44.16044176 -9.46155643 37.229249 C-9.58776651 33.66550336 -9.71590489 30.10184845 -9.84838867 26.53833008 C-10.00046764 22.44550237 -10.14426965 18.35242091 -10.28759766 14.25927734 C-10.3365065 12.97388565 -10.38541534 11.68849396 -10.43580627 10.364151 C-10.47592331 9.18300217 -10.51604034 8.00185333 -10.55737305 6.78491211 C-10.61399864 5.21605003 -10.61399864 5.21605003 -10.67176819 3.61549377 C-10.57009619 -1.79790155 -4.13788795 0.01014867 0 0 Z " fill="#232952" transform="translate(1423.62744140625,948.74462890625)"/>
<path d="M0 0 C8.51531139 0 13.99375272 4.23794303 20.05078125 9.92578125 C26.4430252 16.75603764 29.51879353 23.47770482 29.37231445 32.86254883 C28.66222875 38.8463596 26.21242205 44.17837255 23.875 49.6875 C23.36361063 50.93570843 22.85443099 52.18482436 22.34741211 53.43481445 C21.35534799 55.87558248 20.35382351 58.31161751 19.34619141 60.74609375 C7.63412434 88.54906583 7.63412434 88.54906583 9 118 C11.01508358 118.73323796 11.01508358 118.73323796 13 119 C13.27255615 118.31067383 13.5451123 117.62134766 13.82592773 116.91113281 C15.88175308 111.81367775 18.0616033 106.76824995 20.22290039 101.71484375 C20.78549776 100.39824484 21.34701069 99.08118205 21.9074707 97.76367188 C22.7185346 95.8570682 23.53271984 93.95182611 24.34765625 92.046875 C25.07480835 90.34289551 25.07480835 90.34289551 25.81665039 88.60449219 C27 86 27 86 28 85 C30.5 84.875 30.5 84.875 33 85 C34 86 34 86 34.19702148 89.03857422 C33.97800822 93.44217916 33.08074279 97.17545221 31.84765625 101.3828125 C31.62806747 102.16010712 31.4084787 102.93740173 31.18223572 103.73825073 C30.48421102 106.20303096 29.77386717 108.66404108 29.0625 111.125 C28.35724385 113.59375796 27.65456785 116.063229 26.95347595 118.53317261 C26.51794232 120.06439665 26.07957339 121.59481794 25.63795471 123.1242981 C22.69360722 133.38999214 21.83096004 141.76683053 25 152.125 C26.72358776 157.75909333 27.85141451 162.13470005 27 168 C24.41189596 171.2155232 22.70194561 171.85431318 18.6875 172.6875 C13.18197096 171.66104543 10.47275189 169.33928617 7 165 C-8.86089651 140.36452803 -8.66527309 109.62794149 -2.86621094 81.84179688 C-1.80711039 77.14450085 -0.66663479 72.4704289 0.4921875 67.796875 C0.82801346 66.43967346 0.82801346 66.43967346 1.17062378 65.05505371 C2.30228541 60.50066964 3.45565982 55.95347161 4.64599609 51.4140625 C9.10779358 34.98144946 9.10779358 34.98144946 5.75 18.6875 C5.29753906 17.70007813 4.84507812 16.71265625 4.37890625 15.6953125 C3.21877439 13.42763265 2.00347176 11.24163603 0.6875 9.0625 C-1.01068347 5.98061148 -1.50649662 4.44417702 -1 1 C-0.67 0.67 -0.34 0.34 0 0 Z " fill="#232952" transform="translate(474,932)"/>
<path d="M0 0 C7.99983233 6.49371442 15.54405332 16.55354011 16.70458984 27.07324219 C16.58470703 27.9665625 16.46482422 28.85988281 16.34130859 29.78027344 C12.77009141 32.16108489 11.07456226 32.04934215 6.84130859 32.03027344 C5.69662109 32.03542969 4.55193359 32.04058594 3.37255859 32.04589844 C0.34130859 31.78027344 0.34130859 31.78027344 -2.65869141 29.78027344 C-3.68603516 27.82714844 -3.68603516 27.82714844 -4.59619141 25.53027344 C-9.10471526 14.91998798 -15.44961885 8.13460536 -26.08837891 3.71386719 C-28.99492278 2.65814684 -31.56781309 1.98633199 -34.65869141 1.78027344 C-36.39119141 1.65652344 -36.39119141 1.65652344 -38.15869141 1.53027344 C-62.65448947 1.99508934 -84.65171626 17.30175792 -104.28759766 30.26464844 C-125.36942519 44.14574746 -125.36942519 44.14574746 -137.65869141 42.78027344 C-144.64594391 40.75093228 -150.23578413 35.75412726 -153.98291016 29.60839844 C-156.48665258 24.51306297 -157.25314488 20.42758144 -156.65869141 14.78027344 C-155.99869141 14.12027344 -155.33869141 13.46027344 -154.65869141 12.78027344 C-149.76356912 12.78027344 -147.13711443 13.95117262 -143.15869141 16.78027344 C-139.21148359 19.53135767 -136.61779283 20.95127693 -131.65869141 20.78027344 C-122.56148331 18.34957315 -114.3788647 13.63925022 -106.12686157 9.24099731 C-73.72214199 -7.96147603 -33.48164509 -24.62088591 0 0 Z " fill="#232952" transform="translate(399.65869140625,953.2197265625)"/>
<path d="M0 0 C4.44643799 1.42095648 7.27587275 4.60028394 10.5546875 7.81640625 C11.15667969 8.40550781 11.75867188 8.99460937 12.37890625 9.6015625 C16.13063403 13.57249235 18.7204399 17.75839118 21.26953125 22.58984375 C21.74706848 23.49029419 21.74706848 23.49029419 22.23425293 24.40893555 C23.01160321 25.87604735 23.78369011 27.34594594 24.5546875 28.81640625 C31.36725558 29.09660743 38.17832756 29.28845739 44.99536133 29.4206543 C47.31103017 29.47578542 49.62631929 29.55071679 51.94067383 29.64624023 C65.16083206 30.92920571 65.16083206 30.92920571 76.95361328 26.45947266 C79.18153585 23.68184496 80.80073518 20.90232979 82.5546875 17.81640625 C86.88415652 13.81005051 86.88415652 13.81005051 90.02734375 13.83984375 C97.51027061 16.73123744 105.30682098 22.93583158 109.5546875 29.81640625 C110.6171875 33.06640625 110.6171875 33.06640625 110.5546875 35.81640625 C109.21043051 37.86816693 108.21083993 38.59072406 105.90582275 39.38352966 C102.6455686 39.98378764 99.42621712 39.9469828 96.12402344 39.92993164 C95.38216797 39.93007767 94.6403125 39.93022369 93.87597656 39.93037415 C91.43030853 39.92967894 88.98471719 39.92190491 86.5390625 39.9140625 C84.84084108 39.91219693 83.14261912 39.91077368 81.44439697 39.90977478 C76.97935495 39.90596057 72.51434556 39.89613964 68.04931641 39.8850708 C63.49121543 39.87483312 58.93310917 39.87027211 54.375 39.86523438 C45.43488151 39.85451639 36.49478722 39.83745312 27.5546875 39.81640625 C27.71636414 40.74829773 27.87804077 41.68018921 28.0446167 42.64031982 C28.86846874 47.77024549 28.78031155 52.88042227 28.8046875 58.06640625 C28.8253125 59.14792969 28.8459375 60.22945312 28.8671875 61.34375 C28.91524204 71.30305338 27.24165815 81.04551268 20.5546875 88.81640625 C14.84095016 93.90785536 9.08043556 95.98163897 1.5546875 96.81640625 C-0.085 97.03296875 -0.085 97.03296875 -1.7578125 97.25390625 C-5.60180112 96.62814066 -6.891467 94.68948244 -9.4453125 91.81640625 C-13.27873217 88.4723593 -17.17771188 85.55986379 -21.4453125 82.81640625 C-21.1153125 80.83640625 -20.7853125 78.85640625 -20.4453125 76.81640625 C-19.77999512 76.8321167 -19.11467773 76.84782715 -18.42919922 76.86401367 C-15.3929913 76.92666222 -12.35691978 76.96549134 -9.3203125 77.00390625 C-8.27359375 77.02904297 -7.226875 77.05417969 -6.1484375 77.08007812 C-0.53269793 77.13339211 3.78382364 77.16465667 8.5546875 73.81640625 C15.0210807 63.78234783 13.29443425 49.26396452 11.29296875 38.03125 C8.58823212 26.25348151 3.10724278 16.36896153 -5.4453125 7.81640625 C-5.6953125 4.87890625 -5.6953125 4.87890625 -5.4453125 1.81640625 C-2.4453125 -0.18359375 -2.4453125 -0.18359375 0 0 Z " fill="#232952" transform="translate(973.4453125,1014.18359375)"/>
<path d="M0 0 C4.89446018 -0.27915172 7.86411358 1.93829459 11.6875 4.8125 C12.61949219 5.49957031 13.55148437 6.18664062 14.51171875 6.89453125 C16.78103847 8.81472486 18.44138483 10.48023881 20 13 C20.0625 15.5 20.0625 15.5 19 18 C17.50267334 18.63760254 17.50267334 18.63760254 15.97509766 19.28808594 C14.24811656 20.28392811 14.24811656 20.28392811 13 22 C12.08643431 26.60281168 12.259962 31.2184932 12.3359375 35.890625 C12.33484288 37.2782247 12.33053055 38.66582525 12.32315063 40.05340576 C12.30974413 43.70688886 12.32855851 47.35938859 12.35760498 51.01275635 C12.40295235 56.845064 12.41846468 62.67682744 12.39805984 68.50926971 C12.39843 70.5370192 12.42410092 72.5633466 12.45175171 74.59088135 C12.44948456 82.6167297 12.0565661 88.80999423 6.21875 94.83984375 C5.36796875 95.38318359 5.36796875 95.38318359 4.5 95.9375 C3.9328125 96.31777344 3.365625 96.69804688 2.78125 97.08984375 C-1.3314329 99.19128041 -5.43605704 99.48041505 -10 99 C-12.625 96.8125 -12.625 96.8125 -15 94 C-17.69309898 91.16879338 -19.95343686 89.02811359 -23.3125 87 C-26 85 -26 85 -26.4375 82.3125 C-26 80 -26 80 -25 79 C-21.65821594 78.97356781 -18.33021825 79.02898026 -14.99023438 79.12695312 C-9.55452561 79.4035572 -9.55452561 79.4035572 -5 77 C-3.71924462 70.70674514 -3.78073924 64.34302775 -3.68359375 57.94140625 C-3.6524221 56.22497169 -3.6524221 56.22497169 -3.62062073 54.47386169 C-3.55550207 50.83679924 -3.4964161 47.19966769 -3.4375 43.5625 C-3.39427892 41.08918571 -3.3506635 38.61587827 -3.30664062 36.14257812 C-3.19985951 30.09512405 -3.0980247 24.04760201 -3 18 C-3.79291443 18.00444122 -4.58582886 18.00888245 -5.402771 18.01345825 C-12.87731914 18.05354182 -20.35181512 18.08398786 -27.82644272 18.10362434 C-31.66917254 18.11405904 -35.5118135 18.12821245 -39.35449219 18.15087891 C-43.06328453 18.17261857 -46.77199144 18.18457099 -50.48084259 18.18975449 C-51.89542231 18.19344823 -53.30999739 18.2006612 -54.72454071 18.21146011 C-56.70661352 18.2259891 -58.6887724 18.22681704 -60.67089844 18.22705078 C-61.79896912 18.231492 -62.92703979 18.23593323 -64.08929443 18.24050903 C-66.9404054 18.00492425 -68.58701141 17.48261061 -71 16 C-71.125 13.125 -71.125 13.125 -71 10 C-69 8 -69 8 -66.45283508 7.76863098 C-64.83903206 7.78031563 -64.83903206 7.78031563 -63.19262695 7.79223633 C-61.36481438 7.79632256 -61.36481438 7.79632256 -59.50007629 7.80049133 C-58.84676645 7.80603846 -58.19345661 7.81158558 -57.5203495 7.8173008 C-55.47236016 7.83214666 -53.42502399 7.8305573 -51.3769989 7.82365417 C-45.55361602 7.80482045 -39.73073306 7.79822979 -33.9074707 7.84545898 C-30.34501482 7.87315885 -26.78398117 7.86663414 -23.22154808 7.83844566 C-21.21250796 7.83214641 -19.20346112 7.86285123 -17.19465637 7.89424133 C-10.56802783 7.97580821 -10.56802783 7.97580821 -4.67533875 5.39225769 C-2.79550602 3.52403395 -2.79550602 3.52403395 -1.3338623 1.51916504 C-0.89368774 1.01784058 -0.45351318 0.51651611 0 0 Z " fill="#232952" transform="translate(1291,875)"/>
<path d="M0 0 C7.058872 2.39735275 13.28671343 6.81793437 17.3125 13.125 C17.3125 16.18213565 16.81165294 17.48971444 14.9375 19.875 C13.3125 21.125 13.3125 21.125 10.3125 22.125 C10.30370064 23.23254135 10.30370064 23.23254135 10.29472351 24.36245728 C10.23671089 31.3362382 10.16458515 38.30974737 10.07678509 45.28321266 C10.03214371 48.86798459 9.99287434 52.45264451 9.96606445 56.03759766 C9.93996856 59.50023752 9.89952301 62.96244493 9.84931374 66.42481613 C9.82462068 68.38220168 9.81461639 70.33975477 9.80485535 72.29727173 C9.78506119 73.49806366 9.76526703 74.69885559 9.74487305 75.93603516 C9.73376999 76.98860504 9.72266693 78.04117493 9.71122742 79.12564087 C9.03991885 84.17544534 7.1085237 87.34666572 3.5 90.875 C-1.26947434 94.24168777 -5.81282155 95.99995211 -11.6875 95.125 C-14.43922247 92.83189794 -16.46945883 90.41337703 -18.625 87.5625 C-20.64510277 84.91838364 -20.64510277 84.91838364 -23.9375 83.125 C-26.6875 81.125 -26.6875 81.125 -27.125 78.4375 C-26.6875 76.125 -26.6875 76.125 -25.6875 75.125 C-24.34482587 75.03868126 -22.99775678 75.01793527 -21.65234375 75.02734375 C-20.84345703 75.03056641 -20.03457031 75.03378906 -19.20117188 75.03710938 C-18.35103516 75.04548828 -17.50089844 75.05386719 -16.625 75.0625 C-15.77099609 75.06701172 -14.91699219 75.07152344 -14.03710938 75.07617188 C-11.92054337 75.08799627 -9.80401315 75.10593231 -7.6875 75.125 C-6.7651239 71.96776789 -6.53690943 69.08956561 -6.48217773 65.80566406 C-6.46223251 64.74486633 -6.44228729 63.6840686 -6.42173767 62.59112549 C-6.40502518 61.45246033 -6.38831268 60.31379517 -6.37109375 59.140625 C-6.3399221 57.38452911 -6.3399221 57.38452911 -6.30812073 55.59295654 C-6.24274372 51.85369731 -6.18379509 48.11436795 -6.125 44.375 C-6.08180353 41.8398365 -6.03818888 39.30468009 -5.99414062 36.76953125 C-5.88707441 30.5547616 -5.7852859 24.33992222 -5.6875 18.125 C-6.53274734 18.12944122 -7.37799469 18.13388245 -8.24885559 18.13845825 C-16.20934267 18.17851026 -24.16979598 18.20897182 -32.1303606 18.22862434 C-36.22309983 18.2390675 -40.3157559 18.25323636 -44.40844727 18.27587891 C-48.35713711 18.29758839 -52.30574689 18.30956462 -56.25449181 18.31475449 C-57.76200305 18.31845366 -59.26950986 18.32567711 -60.77698708 18.33646011 C-62.88633363 18.35095004 -64.99534812 18.35297902 -67.10473633 18.35205078 C-68.30608719 18.356492 -69.50743805 18.36093323 -70.74519348 18.36550903 C-73.6875 18.125 -73.6875 18.125 -76.6875 16.125 C-76.9375 12.5625 -76.9375 12.5625 -76.6875 9.125 C-75.6875 8.125 -75.6875 8.125 -73.02366638 8.00474548 C-71.83563919 8.00696609 -70.647612 8.00918671 -69.42358398 8.01147461 C-68.4431311 8.01125557 -68.4431311 8.01125557 -67.44287109 8.0110321 C-65.27307872 8.01173117 -63.10337121 8.01952322 -60.93359375 8.02734375 C-59.43286689 8.02920795 -57.93213943 8.03063184 -56.43141174 8.03163147 C-52.47431774 8.03545648 -48.51726022 8.0452866 -44.56018066 8.05633545 C-40.52515151 8.06654994 -36.49011647 8.07112917 -32.45507812 8.07617188 C-24.53253531 8.08690889 -16.61002219 8.1039851 -8.6875 8.125 C-8.39359375 7.51269531 -8.0996875 6.90039062 -7.796875 6.26953125 C-5.89182979 2.58689103 -4.33405337 0.20158388 0 0 Z " fill="#232952" transform="translate(1194.6875,874.875)"/>
<path d="M0 0 C6.57054033 4.02360924 12.19761505 9.16993197 15.5 16.1875 C16.0842898 19.47413013 15.85782003 20.29381128 14 23 C11.6796875 24.23828125 11.6796875 24.23828125 8.875 25.3125 C4.19378993 27.31353539 0.93247599 29.50326101 -2.765625 32.94921875 C-5.63276746 35.58077433 -8.59468525 38.05941204 -11.625 40.5 C-12.16366699 40.95785889 -12.70233398 41.41571777 -13.25732422 41.88745117 C-16.20692383 44.23493497 -17.57457093 45.02738394 -21.3984375 44.78125 C-22.25695313 44.5234375 -23.11546875 44.265625 -24 44 C-24.95849676 41.43361844 -25.08514104 40.25208983 -24.19555664 37.61816406 C-23.77137451 36.75932617 -23.34719238 35.90048828 -22.91015625 35.015625 C-22.22856445 33.61376953 -22.22856445 33.61376953 -21.53320312 32.18359375 C-21.04787109 31.21550781 -20.56253906 30.24742187 -20.0625 29.25 C-19.58103516 28.26644531 -19.09957031 27.28289063 -18.60351562 26.26953125 C-17.41280543 23.84095402 -16.21137576 21.41831774 -15 19 C-15.92490644 18.99503478 -15.92490644 18.99503478 -16.86849785 18.98996925 C-31.85726624 18.90882335 -46.84592411 18.81675881 -61.83454704 18.71247292 C-69.08287308 18.66230603 -76.33118757 18.61586371 -83.57958984 18.578125 C-89.89574473 18.54523065 -96.2118111 18.50541382 -102.52786839 18.45720994 C-105.8735849 18.43191931 -109.21924251 18.41014578 -112.56502914 18.39665604 C-116.2959246 18.37987555 -120.02653285 18.35086053 -123.75732422 18.31884766 C-124.87222229 18.31668747 -125.98712036 18.31452728 -127.13580322 18.31230164 C-128.14825104 18.30113815 -129.16069885 18.28997467 -130.2038269 18.2784729 C-131.08690458 18.27294214 -131.96998226 18.26741138 -132.87981987 18.26171303 C-135 18 -135 18 -137 16 C-137.25 13.5 -137.25 13.5 -137 11 C-135 9 -135 9 -132.90216637 8.76063347 C-131.59313567 8.76792315 -131.59313567 8.76792315 -130.25765991 8.77536011 C-129.25677338 8.7757579 -128.25588684 8.7761557 -127.22467041 8.77656555 C-126.1223407 8.78697372 -125.02001099 8.7973819 -123.88427734 8.80810547 C-122.14747208 8.81231255 -122.14747208 8.81231255 -120.37557983 8.81660461 C-117.85355718 8.82311767 -115.33154263 8.8337201 -112.80955124 8.84786606 C-108.81654692 8.86728179 -104.82374927 8.87025275 -100.83071899 8.86599731 C-99.4631634 8.86480386 -98.09560778 8.86363486 -96.72805214 8.8624897 C-96.04305869 8.86190945 -95.35806525 8.8613292 -94.65231442 8.86073136 C-85.35578175 8.85470884 -76.05956905 8.86697239 -66.76318359 8.92089844 C-60.49370093 8.95709387 -54.22487026 8.96473516 -47.95532191 8.94040024 C-44.63898943 8.92873681 -41.3244451 8.93616372 -38.00822067 8.96990585 C-34.30179291 9.00606639 -30.59854451 8.99271754 -26.89208984 8.96826172 C-25.80190552 8.99081528 -24.71172119 9.01336884 -23.58850098 9.03660583 C-17.68682889 8.94080914 -14.62124485 8.26291385 -10.38174438 4.00198364 C-9.25261296 2.6695828 -8.12496667 1.33591908 -7 0 C-4.13007732 -1.43496134 -3.07236191 -1.00185715 0 0 Z " fill="#232952" transform="translate(1070,953)"/>
<path d="M0 0 C1.5408242 0.01459868 3.08157863 0.05593585 4.62109375 0.12109375 C5.79188477 0.12979492 5.79188477 0.12979492 6.98632812 0.13867188 C12.76328263 0.26328263 12.76328263 0.26328263 15.05859375 2.55859375 C15.05859375 13.22919073 8.55640781 21.81629093 1.45703125 29.28125 C-18.87387831 48.58568041 -50.00964988 53.62405331 -76.94140625 54.55859375 C-77.63991699 54.5858252 -78.33842773 54.61305664 -79.05810547 54.64111328 C-81.2275778 54.71795581 -83.39597391 54.7681108 -85.56640625 54.80859375 C-86.85804688 54.834375 -88.1496875 54.86015625 -89.48046875 54.88671875 C-93.13889571 54.53987014 -95.00170188 53.69860842 -97.94140625 51.55859375 C-97.62890625 49.18359375 -97.62890625 49.18359375 -96.94140625 46.55859375 C-93.69406653 44.3937006 -91.85516436 44.05578574 -88.04296875 43.48046875 C-86.85171387 43.29258789 -85.66045898 43.10470703 -84.43310547 42.91113281 C-83.15709473 42.71229492 -81.88108398 42.51345703 -80.56640625 42.30859375 C-56.69547582 38.39934243 -27.89061366 32.84011182 -11.83203125 12.9453125 C-9.48074641 9.66614459 -7.34216222 6.52176657 -5.7890625 2.7890625 C-3.94140625 0.55859375 -3.94140625 0.55859375 0 0 Z " fill="#232952" transform="translate(400.94140625,1002.44140625)"/>
<path d="M0 0 C7.21606475 1.8927383 12.64038737 6.93147253 16.8125 13 C17.8125 16.1875 17.8125 16.1875 17.8125 19 C16.16675973 21.28757897 15.21873009 21.92831234 12.421875 22.421875 C11.47828125 22.53015625 10.5346875 22.6384375 9.5625 22.75 C0.61291991 24.74602756 -4.48882334 31.80379198 -10.49121094 38.24462891 C-13.69337812 41.55832811 -17.25319064 44.58683173 -21.1875 47 C-21.8475 47 -22.5075 47 -23.1875 47 C-24.05666887 45.59248779 -24.90735149 44.1735479 -25.75 42.75 C-26.22566406 41.96109375 -26.70132813 41.1721875 -27.19140625 40.359375 C-28.1875 38 -28.1875 38 -28.109375 36.0078125 C-26.82583093 33.21229704 -24.99199567 31.34940461 -22.875 29.125 C-19.54164423 25.60982482 -16.83831691 22.05246645 -14.1875 18 C-15.61236977 17.9845388 -15.61236977 17.9845388 -17.06602478 17.96876526 C-25.99847864 17.87119905 -34.93086022 17.76848134 -43.86319637 17.66066074 C-48.45589178 17.60539035 -53.0485935 17.55196391 -57.64135742 17.50268555 C-62.06989331 17.45510253 -66.49834929 17.40276219 -70.92679024 17.34705925 C-72.62013331 17.32660813 -74.31349831 17.3078997 -76.00687981 17.29092598 C-78.37047163 17.26694272 -80.73391104 17.23688034 -83.09741211 17.20532227 C-83.80447296 17.1995668 -84.51153381 17.19381134 -85.24002075 17.18788147 C-90.07344784 17.11405216 -90.07344784 17.11405216 -91.1875 16 C-91.3125 12.5 -91.3125 12.5 -91.1875 9 C-89.47626452 7.28876452 -87.31273563 7.8764072 -85.03060913 7.86766052 C-83.92333969 7.87081017 -83.92333969 7.87081017 -82.79370117 7.87402344 C-82.01969467 7.8721553 -81.24568817 7.87028717 -80.44822693 7.86836243 C-78.76160707 7.86434885 -77.07498175 7.86228272 -75.38835716 7.86190033 C-71.80628137 7.85849691 -68.22438908 7.83714894 -64.6423769 7.81666946 C-57.96623197 7.77858195 -51.2902795 7.74738556 -44.61401367 7.74951172 C-39.97660617 7.7502979 -35.33986469 7.72697268 -30.702631 7.6876297 C-28.93362737 7.67715088 -27.16454704 7.6756595 -25.39552879 7.68328094 C-22.91944521 7.69288285 -20.44538332 7.67176028 -17.96948242 7.64355469 C-17.23737549 7.65375137 -16.50526855 7.66394806 -15.75097656 7.67445374 C-13.44103703 7.68099823 -13.44103703 7.68099823 -10.1875 7 C-7.83857975 4.67543663 -7.83857975 4.67543663 -6.1875 2 C-3.1875 0 -3.1875 0 0 0 Z " fill="#232952" transform="translate(1026.1875,984)"/>
<path d="M0 0 C1.13180191 -0.0049926 1.13180191 -0.0049926 2.28646851 -0.01008606 C3.87472939 -0.01511564 5.46300069 -0.01749562 7.05126953 -0.01733398 C9.43410486 -0.01950678 11.81646583 -0.03766731 14.19921875 -0.05664062 C23.60962817 -0.09001607 32.54708602 0.51159142 41.8359375 2.16796875 C40.20108048 5.58892507 38.23431877 8.22138604 35.8359375 11.16796875 C29.51038717 19.4374687 25.25637975 28.78410079 20.8359375 38.16796875 C17.41044183 37.62317957 14.97987599 36.88663061 12.11328125 34.9375 C11.41960449 34.47093994 10.72592773 34.00437988 10.01123047 33.52368164 C9.27275879 33.01442139 8.53428711 32.50516113 7.7734375 31.98046875 C6.99629395 31.45380615 6.21915039 30.92714355 5.41845703 30.38452148 C-1.52698498 25.65816547 -8.40794976 20.83561322 -15.26196289 15.9777832 C-19.66058165 12.86945003 -24.08305101 9.92987806 -28.74365234 7.22631836 C-29.2123877 6.87706299 -29.68112305 6.52780762 -30.1640625 6.16796875 C-30.1640625 5.50796875 -30.1640625 4.84796875 -30.1640625 4.16796875 C-27.99838706 3.68434179 -25.83146509 3.20629558 -23.6640625 2.73046875 C-22.4575 2.46363281 -21.2509375 2.19679688 -20.0078125 1.921875 C-13.3078249 0.60775142 -6.82137013 0.01080956 0 0 Z " fill="#E40012" transform="translate(720.1640625,656.83203125)"/>
<path d="M0 0 C2.64 0 5.28 0 8 0 C10.97 8.91 13.94 17.82 17 27 C19.64 18.09 22.28 9.18 25 0 C26.65 0 28.3 0 30 0 C32.64 8.58 35.28 17.16 38 26 C39.92823876 23.10764186 40.74333644 20.97140935 41.7265625 17.67578125 C42.0359375 16.64775391 42.3453125 15.61972656 42.6640625 14.56054688 C43.13972656 12.95276367 43.13972656 12.95276367 43.625 11.3125 C43.94984375 10.22904297 44.2746875 9.14558594 44.609375 8.02929688 C45.4107348 5.35416929 46.20741725 2.67773862 47 0 C49.64 0 52.28 0 55 0 C53.45054558 9.39006715 50.43626049 18.14581727 47.375 27.125 C46.85360505 28.66908131 46.33276723 30.21335085 45.8125 31.7578125 C44.54807788 35.50740901 43.27614875 39.25437918 42 43 C39.69 43 37.38 43 35 43 C33.82627027 39.39809458 32.66223744 35.79312849 31.5 32.1875 C31.16613281 31.16333984 30.83226562 30.13917969 30.48828125 29.08398438 C30.17246094 28.10107422 29.85664062 27.11816406 29.53125 26.10546875 C29.23798828 25.19949951 28.94472656 24.29353027 28.64257812 23.36010742 C28 21 28 21 28 18 C27.34 18 26.68 18 26 18 C25.91363281 18.54785156 25.82726562 19.09570312 25.73828125 19.66015625 C24.30906621 27.72407595 21.69326688 35.29026658 19 43 C17.02 43 15.04 43 13 43 C11.01862699 37.81404656 9.17787684 32.62151645 7.51953125 27.32421875 C7.19295784 26.28646049 7.19295784 26.28646049 6.85978699 25.22773743 C6.40575583 23.78199509 5.95291008 22.33587998 5.5012207 20.8894043 C4.80830641 18.67409269 4.10840169 16.46106538 3.40820312 14.24804688 C2.96571992 12.8360709 2.52364769 11.42396606 2.08203125 10.01171875 C1.87270462 9.3523381 1.66337799 8.69295746 1.44770813 8.01359558 C0.58051605 5.21610641 0 2.95000596 0 0 Z " fill="#232952" transform="translate(944,1326)"/>
<path d="M0 0 C2.64 0 5.28 0 8 0 C10.97 8.91 13.94 17.82 17 27 C19.64 18.09 22.28 9.18 25 0 C26.65 0 28.3 0 30 0 C32.64 8.58 35.28 17.16 38 26 C39.92823876 23.10764186 40.74333644 20.97140935 41.7265625 17.67578125 C42.0359375 16.64775391 42.3453125 15.61972656 42.6640625 14.56054688 C43.13972656 12.95276367 43.13972656 12.95276367 43.625 11.3125 C43.94984375 10.22904297 44.2746875 9.14558594 44.609375 8.02929688 C45.4107348 5.35416929 46.20741725 2.67773862 47 0 C49.64 0 52.28 0 55 0 C53.45054558 9.39006715 50.43626049 18.14581727 47.375 27.125 C46.85360505 28.66908131 46.33276723 30.21335085 45.8125 31.7578125 C44.54807788 35.50740901 43.27614875 39.25437918 42 43 C39.69 43 37.38 43 35 43 C33.82627027 39.39809458 32.66223744 35.79312849 31.5 32.1875 C31.16613281 31.16333984 30.83226562 30.13917969 30.48828125 29.08398438 C30.17246094 28.10107422 29.85664062 27.11816406 29.53125 26.10546875 C29.23798828 25.19949951 28.94472656 24.29353027 28.64257812 23.36010742 C28 21 28 21 28 18 C27.34 18 26.68 18 26 18 C25.91363281 18.54785156 25.82726562 19.09570312 25.73828125 19.66015625 C24.30906621 27.72407595 21.69326688 35.29026658 19 43 C17.02 43 15.04 43 13 43 C11.01862699 37.81404656 9.17787684 32.62151645 7.51953125 27.32421875 C7.19295784 26.28646049 7.19295784 26.28646049 6.85978699 25.22773743 C6.40575583 23.78199509 5.95291008 22.33587998 5.5012207 20.8894043 C4.80830641 18.67409269 4.10840169 16.46106538 3.40820312 14.24804688 C2.96571992 12.8360709 2.52364769 11.42396606 2.08203125 10.01171875 C1.87270462 9.3523381 1.66337799 8.69295746 1.44770813 8.01359558 C0.58051605 5.21610641 0 2.95000596 0 0 Z " fill="#232952" transform="translate(700,1326)"/>
<path d="M0 0 C4.67945491 1.47267762 7.85267512 4.22236966 11.4375 7.4375 C12.68701962 8.5293869 13.93837034 9.6191814 15.19140625 10.70703125 C16.14297607 11.53388428 16.14297607 11.53388428 17.11376953 12.37744141 C31.1865215 24.48299533 46.27688045 33.98683855 63 42 C62.01 46.62 61.02 51.24 60 56 C54.28050424 54.85610085 50.37577079 52.6914008 45.375 49.8125 C44.45074219 49.28076172 43.52648437 48.74902344 42.57421875 48.20117188 C2.84012171 24.8648434 2.84012171 24.8648434 -2 9 C-1.83286288 5.54583278 -1.54123585 3.08247169 0 0 Z " fill="#E40012" transform="translate(672,670)"/>
<path d="M0 0 C4.30146086 1.6679134 7.69296227 4.04204669 10.20703125 7.98046875 C12.83354384 14.75663136 11.6220076 22.71121104 9.0625 29.3125 C6.24900564 35.29017924 2.96534023 41.68362507 -1.9375 46.1875 C-6.41440659 46.84101842 -9.97248945 45.73796227 -14.1875 44.25 C-15.22390625 43.89035156 -16.2603125 43.53070312 -17.328125 43.16015625 C-19.9375 42.1875 -19.9375 42.1875 -21.9375 41.1875 C-21.48419351 28.2682651 -15.31074425 16.53438757 -7.9375 6.1875 C-7.4940625 5.51332031 -7.050625 4.83914063 -6.59375 4.14453125 C-4.5538656 1.28738547 -3.57277735 0.22804962 0 0 Z " fill="#E40012" transform="translate(778.9375,662.8125)"/>
<path d="M0 0 C2.5625 0.375 2.5625 0.375 4.0859375 2.0859375 C11.10214123 12.96290941 11.34058151 27.46461399 8.8671875 39.859375 C6.59706078 46.76513862 2.8514024 51.70832238 -2.75 56.25 C-6.59324575 57.85880055 -10.26710463 58.51854622 -14.4375 58.375 C-17.48897152 57.03998121 -18.94936717 56.35126566 -20.4375 53.375 C-21.17246074 49.34941958 -21.35267616 45.82787609 -19.12109375 42.28515625 C-17.3000505 40.22782551 -15.3990447 38.29853027 -13.4375 36.375 C-12.15242888 34.99226348 -10.88107626 33.59662756 -9.625 32.1875 C-9.06167969 31.57519531 -8.49835937 30.96289062 -7.91796875 30.33203125 C-3.7218414 24.78517161 -4.25671957 19.35377839 -4.4375 12.6875 C-4.48839122 10.78798515 -4.53050123 8.88820827 -4.5625 6.98828125 C-4.58570313 6.15079346 -4.60890625 5.31330566 -4.6328125 4.45043945 C-4.32887328 1.22070527 -3.10670463 0.47795456 0 0 Z " fill="#232952" transform="translate(912.4375,948.625)"/>
<path d="M0 0 C2.6875 1.8125 2.6875 1.8125 4 4 C4.27456678 8.75915757 2.91158236 11.5279402 0 15.125 C-4.55066551 19.92796114 -9.57447318 23.23100418 -16.0625 24.6875 C-25.48919244 22.48125283 -35.66532003 11.09876694 -40.8125 3.125 C-42 0 -42 0 -41.5625 -2.8125 C-33.883357 -13.5633002 -9.26380968 -4.81571059 0 0 Z " fill="#E60012" transform="translate(1164,908)"/>
<path d="M0 0 C7.83485356 0.1703229 15.45216879 4.31496613 21.125 9.625 C24 13.26666667 24 13.26666667 24 16 C23.0625 17.6875 23.0625 17.6875 21 19 C19.80375 19 18.6075 19 17.375 19 C14.17903852 19.28524975 13.16485353 19.83394096 10.86328125 22.15234375 C9.3653425 24.06981292 7.88583607 26.00177797 6.421875 27.9453125 C2.49104735 32.90322737 -2.18683631 36.92020297 -7 41 C-8.12148437 41.96873047 -8.12148437 41.96873047 -9.265625 42.95703125 C-12.4754168 45.57264404 -14.25842416 46.90561762 -18.4375 47.4375 C-21 47 -21 47 -22 46 C-22.62146776 40.70975569 -20.96869967 37.73394679 -18 33.5625 C-11.45189289 23.87645972 -5.74021 13.76039131 -1.69140625 2.7578125 C-1 1 -1 1 0 0 Z " fill="#232952" transform="translate(1033,913)"/>
<path d="M0 0 C4.76892575 4.76892575 7.09447817 10.68016016 7.4375 17.375 C7.18476593 23.47220953 5.3814213 29.32631336 1.28125 33.9296875 C-4.6677308 39.19806456 -9.78667786 39.34977613 -17.609375 39.27734375 C-23.37145045 38.80602191 -26.10255922 36.11774117 -29.75 32 C-34.93946879 25.08070828 -34.85705357 18.39382367 -34 10 C-32.8566426 6.75149099 -31.3491684 4.49753693 -29 2 C-28.53078125 1.49984375 -28.0615625 0.9996875 -27.578125 0.484375 C-19.29023021 -7.2688169 -8.65624294 -6.11028914 0 0 Z M-25 9 C-26.62539389 13.87618168 -26.92029093 19.16550394 -25.31640625 24.10546875 C-23.75421334 27.14558691 -22.00051572 28.99962493 -19.25 31 C-15.15843198 32.25894401 -12.07017149 32.37630541 -8 31 C-4.35262344 28.14553138 -2.15113132 25.49987698 -1 21 C-0.37755227 14.56804008 -1.1949524 11.24479534 -5 6 C-7.95993131 3.52005755 -9.64467338 3.03807071 -13.5 2.625 C-18.45193063 3.155564 -21.82035365 5.18442438 -25 9 Z " fill="#232952" transform="translate(924,1330)"/>
<path d="M0 0 C0.66 0.66 1.32 1.32 2 2 C1.81580893 4.9664457 1.3264815 6.59231244 -0.5390625 8.921875 C-8.67506282 16.05230225 -18.07223802 22.36048847 -28.3125 26 C-31.01831755 27.08131171 -31.77862786 27.487109 -32.94921875 30.19921875 C-33.45239833 32.47244848 -33.73761917 34.6901116 -34 37 C-35 38 -35 38 -37.6875 38.5 C-41.89284059 37.86523161 -43.06692341 36.55186192 -45.609375 33.2734375 C-48.87576759 27.93343613 -51 22.26400944 -51 16 C-48.76467283 15.25489094 -46.5293345 14.50981556 -44.29394531 13.76489258 C-42.37773455 13.12599188 -40.46172116 12.48649891 -38.54589844 11.84643555 C-34.22891332 10.40490451 -29.91144899 8.96630841 -25.58203125 7.5625 C-20.2485843 5.82569052 -15.01339395 4.09497209 -9.9375 1.6875 C-6.49800611 0.08456605 -3.84657178 -0.56291294 0 0 Z " fill="#232952" transform="translate(1167,936)"/>
<path d="M0 0 C1.09289589 -0.00503792 1.09289589 -0.00503792 2.20787048 -0.01017761 C4.6223215 -0.01969625 7.03670325 -0.02163105 9.45117188 -0.02270508 C11.12504099 -0.02591657 12.79890981 -0.02928056 14.47277832 -0.03279114 C17.98332368 -0.03878437 21.49384441 -0.04063079 25.00439453 -0.04003906 C29.51063662 -0.03993733 34.01672154 -0.05360053 38.52292633 -0.07081127 C41.98008963 -0.08190871 45.43721463 -0.08395898 48.89439392 -0.08342934 C50.55623416 -0.08461244 52.21807529 -0.08905262 53.87989807 -0.0967617 C56.19999333 -0.10651807 58.51974338 -0.10370123 60.83984375 -0.09765625 C61.5308165 -0.10327576 62.22178925 -0.10889526 62.93370056 -0.11468506 C67.69160466 -0.08305354 67.69160466 -0.08305354 69.91992188 2.14526367 C70.16992188 5.14526367 70.16992188 5.14526367 69.91992188 8.14526367 C67.02218384 11.04300171 64.91258537 10.40574952 60.85571289 10.41992188 C60.12872192 10.42503281 59.40173096 10.43014374 58.65270996 10.43540955 C56.24299957 10.44934062 53.83357407 10.44834614 51.42382812 10.44604492 C49.75235385 10.44993003 48.08088056 10.45426431 46.40940857 10.45903015 C42.90303347 10.46649999 39.39675904 10.46619566 35.89038086 10.4609375 C31.39311019 10.45514283 26.89625136 10.47206988 22.39904881 10.49528217 C18.94611698 10.51000212 15.49328472 10.51089358 12.04032707 10.50777245 C10.38210166 10.50828657 8.72387081 10.51354135 7.06567574 10.52358437 C4.74801884 10.53589768 2.43116901 10.52918844 0.11352539 10.51757812 C-1.86598366 10.51852226 -1.86598366 10.51852226 -3.88548279 10.51948547 C-7.08007812 10.14526367 -7.08007812 10.14526367 -9.04139709 8.81730652 C-10.08007812 7.14526367 -10.08007812 7.14526367 -9.89257812 4.02026367 C-9.62445312 3.07151367 -9.35632813 2.12276367 -9.08007812 1.14526367 C-6.15299883 -0.31827598 -3.20842934 -0.0021043 0 0 Z " fill="#232952" transform="translate(901.080078125,1043.854736328125)"/>
<path d="M0 0 C1.1875 1.6875 1.1875 1.6875 2 4 C-3.12353387 15.19183285 -21.27295524 20.71374195 -32 25 C-32.66 25 -33.32 25 -34 25 C-34.12375 26.27875 -34.2475 27.5575 -34.375 28.875 C-34.75 32.75 -34.75 32.75 -37 35 C-40.25 35.1875 -40.25 35.1875 -44 34 C-49.05298378 28.83243609 -50.89160547 22.98288551 -52 16 C-44.77595015 12.45976834 -37.34915791 10.1922222 -29.625 8 C-22.09452844 5.8484367 -14.69488371 3.63885634 -7.41552734 0.734375 C-4.82313665 -0.05377046 -2.69386526 -0.1345431 0 0 Z " fill="#232952" transform="translate(1273,929)"/>
<path d="M0 0 C15 0 15 0 20.4375 3.625 C22.60839726 6.92476383 23.09653269 10.12384134 23 14 C22.0625 17.5 22.0625 17.5 21 20 C21.639375 20.61875 22.27875 21.2375 22.9375 21.875 C26.1236993 25.1577508 26.28489846 27.40450649 26.21875 31.96875 C25.89955562 34.93269781 24.84691316 36.69135856 23 39 C19 42 19 42 0 42 C0 28.14 0 14.28 0 0 Z M7 7 C7 10.63 7 14.26 7 18 C9.91652174 18.16681109 9.91652174 18.16681109 13 18 C15.37994368 16.05667668 15.37994368 16.05667668 15.25 12.5 C15.37994368 8.94332332 15.37994368 8.94332332 13 7 C9.91652174 6.83318891 9.91652174 6.83318891 7 7 Z M7 24 C7 27.96 7 31.92 7 36 C11.86059927 36.28689921 11.86059927 36.28689921 16.4375 34.875 C18.25763262 33.01184014 18.25763262 33.01184014 18.5 30 C18.25763262 26.98815986 18.25763262 26.98815986 16.4375 25.125 C13.19726212 23.6295056 10.52393641 23.79669598 7 24 Z " fill="#232952" transform="translate(1051,1326)"/>
<path d="M0 0 C2.31 0 4.62 0 7 0 C12.6487364 14.22173827 17.86945736 28.58403349 23 43 C20.03 43 17.06 43 14 43 C12.515 38.545 12.515 38.545 11 34 C6.05 34.33 1.1 34.66 -4 35 C-4.99 37.64 -5.98 40.28 -7 43 C-9.97 43 -12.94 43 -16 43 C-11.06209854 28.50384554 -5.67027821 14.22506122 0 0 Z M3 13 C2.34865075 14.56020867 1.70417036 16.12328579 1.0625 17.6875 C0.70285156 18.55761719 0.34320312 19.42773438 -0.02734375 20.32421875 C-1.19727241 23.33340624 -1.19727241 23.33340624 -2 28 C1.63 28 5.26 28 9 28 C7.35 23.05 5.7 18.1 4 13 C3.67 13 3.34 13 3 13 Z " fill="#232952" transform="translate(1106,1325)"/>
<path d="M0 0 C2.31 0 4.62 0 7 0 C12.6487364 14.22173827 17.86945736 28.58403349 23 43 C20.03 43 17.06 43 14 43 C12.515 38.545 12.515 38.545 11 34 C6.05 34.33 1.1 34.66 -4 35 C-4.99 37.64 -5.98 40.28 -7 43 C-9.97 43 -12.94 43 -16 43 C-11.06209854 28.50384554 -5.67027821 14.22506122 0 0 Z M3 13 C2.34865075 14.56020867 1.70417036 16.12328579 1.0625 17.6875 C0.70285156 18.55761719 0.34320312 19.42773438 -0.02734375 20.32421875 C-1.19727241 23.33340624 -1.19727241 23.33340624 -2 28 C1.63 28 5.26 28 9 28 C7.35 23.05 5.7 18.1 4 13 C3.67 13 3.34 13 3 13 Z " fill="#232952" transform="translate(782,1325)"/>
<path d="M0 0 C7.05986417 0.76253387 13.17062438 6.89209966 17.78125 12.03515625 C21.65104338 16.97555529 22.77406777 21.01703367 22.21875 27.34765625 C20.80201113 30.85577154 19.40485034 34.18565959 16.21875 36.34765625 C11.59329001 37.46119291 8.39159812 37.78181766 4.21875 35.34765625 C0.75897752 31.78060401 0.137937 27.67505818 -0.84375 22.97265625 C-1.9234283 17.9775181 -3.15222142 13.19917369 -4.78125 8.34765625 C-5.03125 5.09765625 -5.03125 5.09765625 -4.78125 2.34765625 C-2.78125 0.34765625 -2.78125 0.34765625 0 0 Z " fill="#232952" transform="translate(974.78125,912.65234375)"/>
<path d="M0 0 C8.03683156 0.23489696 15.39688226 7.43073024 20.72265625 12.88671875 C24.63034779 17.77418135 24.71105086 22.49953213 24.0625 28.5625 C22.44977433 32.24873011 21.432175 33.31605 18.0625 35.5625 C15.94140625 35.8984375 15.94140625 35.8984375 13.625 35.9375 C12.86316406 35.96585938 12.10132813 35.99421875 11.31640625 36.0234375 C8.00822626 35.34689463 7.11694046 34.27192049 5.0625 31.5625 C3.49205358 28.30100402 2.21005308 24.9495234 0.9375 21.5625 C0.24878301 19.77029965 -0.44127322 17.97861324 -1.1328125 16.1875 C-1.43203613 15.39601563 -1.73125977 14.60453125 -2.03955078 13.7890625 C-2.9030083 11.54838276 -2.9030083 11.54838276 -4.03466797 9.4375 C-5.20740758 7.00195641 -5.21853791 5.23236018 -4.9375 2.5625 C-2.9375 0.5625 -2.9375 0.5625 0 0 Z " fill="#232952" transform="translate(927.9375,917.4375)"/>
<path d="M0 0 C-0.3125 2.375 -0.3125 2.375 -1 5 C-1.99 5.66 -2.98 6.32 -4 7 C-4 6.34 -4 5.68 -4 5 C-6.97 4.67 -9.94 4.34 -13 4 C-13.66 5.65 -14.32 7.3 -15 9 C-11.92422847 11.57967935 -8.76266961 13.79879178 -5.375 15.9375 C0.70025283 20.00791939 0.70025283 20.00791939 2 24 C2.27019195 28.84544223 1.66460841 32.67989617 -1.4375 36.5 C-5.73759171 40.69521142 -9.16616102 40.39361109 -15.00390625 40.3515625 C-19.54045552 39.81924251 -21.08810164 38.46279806 -24 35 C-24.875 32.6875 -24.875 32.6875 -25 31 C-23.35 29.68 -21.7 28.36 -20 27 C-19.1646875 28.2065625 -19.1646875 28.2065625 -18.3125 29.4375 C-16.22613039 32.11109279 -16.22613039 32.11109279 -13.5 33.0625 C-10.86451593 33.22337174 -10.86451593 33.22337174 -8.625 31.375 C-6.76586059 29.14641986 -6.76586059 29.14641986 -7.03125 26.578125 C-8.41151873 22.9048292 -10.44973687 22.1738792 -13.875 20.375 C-20.89972751 16.63412101 -20.89972751 16.63412101 -23 14 C-24.33350574 9.38401858 -24.03215046 6.34141234 -22 2 C-19.89473778 -0.49307368 -18.14340099 -2.44801332 -15.1875 -3.875 C-9.29250111 -4.21185708 -4.81172992 -3.45843088 0 0 Z " fill="#232952" transform="translate(1168,1329)"/>
<path d="M0 0 C-0.3125 2.375 -0.3125 2.375 -1 5 C-1.99 5.66 -2.98 6.32 -4 7 C-4 6.34 -4 5.68 -4 5 C-6.97 4.67 -9.94 4.34 -13 4 C-13.66 5.65 -14.32 7.3 -15 9 C-11.92422847 11.57967935 -8.76266961 13.79879178 -5.375 15.9375 C0.70025283 20.00791939 0.70025283 20.00791939 2 24 C2.27019195 28.84544223 1.66460841 32.67989617 -1.4375 36.5 C-5.73759171 40.69521142 -9.16616102 40.39361109 -15.00390625 40.3515625 C-19.54045552 39.81924251 -21.08810164 38.46279806 -24 35 C-24.875 32.6875 -24.875 32.6875 -25 31 C-23.35 29.68 -21.7 28.36 -20 27 C-19.1646875 28.2065625 -19.1646875 28.2065625 -18.3125 29.4375 C-16.22613039 32.11109279 -16.22613039 32.11109279 -13.5 33.0625 C-10.86451593 33.22337174 -10.86451593 33.22337174 -8.625 31.375 C-6.76586059 29.14641986 -6.76586059 29.14641986 -7.03125 26.578125 C-8.41151873 22.9048292 -10.44973687 22.1738792 -13.875 20.375 C-20.89972751 16.63412101 -20.89972751 16.63412101 -23 14 C-24.33350574 9.38401858 -24.03215046 6.34141234 -22 2 C-19.89473778 -0.49307368 -18.14340099 -2.44801332 -15.1875 -3.875 C-9.29250111 -4.21185708 -4.81172992 -3.45843088 0 0 Z " fill="#232952" transform="translate(685,1329)"/>
<path d="M0 0 C10.66124701 -0.86637673 21.09083005 1.54444171 29.4140625 8.48046875 C33.5515768 12.44473737 36.13092122 15.6218197 36.3125 21.375 C36.26119443 24.56107611 36.1334629 25.78112084 34.4375 28.5625 C31.02983728 30.57214724 28.89581737 30.54678139 25 30 C21.38477902 27.92124794 19.2731787 25.09340493 16.8125 21.8125 C11.84316666 15.2194152 5.64803484 9.85994271 -1 5 C-0.67 3.35 -0.34 1.7 0 0 Z " fill="#232952" transform="translate(648,888)"/>
<path d="M0 0 C8.56605881 0.12347472 17.22100152 4.1269786 23.48046875 9.84765625 C26.72975327 13.75679547 27.20168626 17.22646881 27.0546875 22.18359375 C26.56873708 25.6786987 25.48848417 27.18421266 22.75 29.375 C19.97976392 30.42415324 17.66783287 30.96687357 14.75 30.375 C9.59951454 26.78229079 6.16025762 22.29894832 2.5 17.25 C1.97148438 16.53457031 1.44296875 15.81914063 0.8984375 15.08203125 C-5.28671546 6.68340985 -5.28671546 6.68340985 -4.9375 3.75 C-3.90683744 0.18952932 -3.86522464 0.44598746 0 0 Z " fill="#232952" transform="translate(1234.25,898.625)"/>
<path d="M0 0 C3.93949664 1.24587302 7.58453362 2.73042985 11.3125 4.5 C17.29420645 7.06573824 22.96354363 7.85706178 29.38793945 8.3671875 C34.81740207 8.81740207 34.81740207 8.81740207 37 11 C37.23046875 13.53125 37.23046875 13.53125 37.1875 16.5 C37.18105469 17.4796875 37.17460938 18.459375 37.16796875 19.46875 C37 22 37 22 36 24 C28.07437202 26.64187599 18.09100824 25.14189986 10.51171875 21.953125 C3.82932951 18.13461687 0.32408895 12.25519942 -2 5 C-1.56976744 1.56976744 -1.56976744 1.56976744 0 0 Z " fill="#232952" transform="translate(532,975)"/>
<path d="M0 0 C6.93 0 13.86 0 21 0 C21 2.31 21 4.62 21 7 C16.38 7 11.76 7 7 7 C7 10.3 7 13.6 7 17 C11.62 17 16.24 17 21 17 C21 19.31 21 21.62 21 24 C16.38 24 11.76 24 7 24 C7 27.96 7 31.92 7 36 C11.62 36 16.24 36 21 36 C21 37.98 21 39.96 21 42 C14.07 42 7.14 42 0 42 C0 28.14 0 14.28 0 0 Z " fill="#232952" transform="translate(1187,1326)"/>
<path d="M0 0 C8.39340649 2.09563707 16.03231874 5.64121815 21 12.9375 C22.19249048 16.5895021 22.48604609 19.18106645 22 23 C20.4375 25.9375 20.4375 25.9375 18 28 C14.6875 28.75 14.6875 28.75 11 28 C7.614917 25.50809855 5.04081794 22.29908542 2.42578125 19.03515625 C-1.91059709 13.73280501 -6.6502686 10.38619107 -12.5234375 6.859375 C-15 5 -15 5 -15.8515625 2.765625 C-15.90054688 2.18296875 -15.94953125 1.6003125 -16 1 C-11.03376718 -2.31082188 -5.71416245 -0.87664082 0 0 Z " fill="#232952" transform="translate(640,913)"/>
<path d="M0 0 C2.31 0 4.62 0 7 0 C7 11.88 7 23.76 7 36 C11.29 36 15.58 36 20 36 C20 37.98 20 39.96 20 42 C13.4 42 6.8 42 0 42 C0 28.14 0 14.28 0 0 Z " fill="#232952" transform="translate(856,1326)"/>
<path d="M0 0 C2.31 0 4.62 0 7 0 C7 11.88 7 23.76 7 36 C11.29 36 15.58 36 20 36 C20 37.98 20 39.96 20 42 C13.4 42 6.8 42 0 42 C0 28.14 0 14.28 0 0 Z " fill="#232952" transform="translate(821,1326)"/>
<path d="M0 0 C1.06734375 -0.00257813 2.1346875 -0.00515625 3.234375 -0.0078125 C4.91273437 0.00378906 4.91273437 0.00378906 6.625 0.015625 C7.74390625 0.00789062 8.8628125 0.00015625 10.015625 -0.0078125 C11.08296875 -0.00523437 12.1503125 -0.00265625 13.25 0 C14.23226563 0.00225586 15.21453125 0.00451172 16.2265625 0.00683594 C18.625 0.265625 18.625 0.265625 20.625 2.265625 C20.9375 5.265625 20.9375 5.265625 20.625 8.265625 C17.36643956 10.43799862 16.39857656 10.52165151 12.625 10.53125 C11.1709375 10.53511719 11.1709375 10.53511719 9.6875 10.5390625 C8.676875 10.53132812 7.66625 10.52359375 6.625 10.515625 C5.614375 10.52335938 4.60375 10.53109375 3.5625 10.5390625 C2.593125 10.53648437 1.62375 10.53390625 0.625 10.53125 C-0.261875 10.52899414 -1.14875 10.52673828 -2.0625 10.52441406 C-4.375 10.265625 -4.375 10.265625 -7.375 8.265625 C-7.6875 5.265625 -7.6875 5.265625 -7.375 2.265625 C-4.76631631 -0.34305869 -3.62967636 0.00833587 0 0 Z " fill="#232952" transform="translate(1385.375,977.734375)"/>
<path d="M0 0 C3.63 0.33 7.26 0.66 11 1 C9.8512638 4.44620861 8.92418358 5.09169196 6.0625 7.1875 C5.35222656 7.71730469 4.64195312 8.24710938 3.91015625 8.79296875 C2 10 2 10 0 10 C0 6.7 0 3.4 0 0 Z " fill="#D90618" transform="translate(753,719)"/>
</svg>
